<svg width="27" height="29" viewBox="0 0 27 29" fill="none" xmlns="http://www.w3.org/2000/svg">
<path d="M19.5268 7.75V6.90625C19.5268 5.33982 18.8918 3.83754 17.7616 2.7299C16.6313 1.62226 15.0984 1 13.5 1C11.9016 1 10.3686 1.62226 9.2384 2.7299C8.10816 3.83754 7.4732 5.33982 7.4732 6.90625V7.75M19.5268 7.75H25.5536V24.625C25.5536 25.5201 25.1907 26.3785 24.5449 27.0115C23.899 27.6444 23.0231 28 22.1097 28H4.89029C3.97692 28 3.10095 27.6444 2.4551 27.0115C1.80924 26.3785 1.44641 25.5201 1.44641 24.625V7.75H7.4732M19.5268 7.75H7.4732" stroke="#3A3E46"/>
</svg>
