<svg width="13" height="13" viewBox="0 0 13 13" fill="none" xmlns="http://www.w3.org/2000/svg">
<path d="M7.4552 6.48527L12.8437 1.11118C12.9502 0.987166 13.0058 0.827645 12.9995 0.664493C12.9932 0.501341 12.9254 0.346576 12.8096 0.231124C12.6939 0.115672 12.5387 0.048037 12.3751 0.0417352C12.2115 0.0354333 12.0515 0.0909288 11.9272 0.197131L6.5387 5.57122L1.1502 0.190648C1.02781 0.0685783 0.861799 0 0.688703 0C0.515607 0 0.349601 0.0685783 0.227203 0.190648C0.104806 0.312718 0.0360436 0.478281 0.0360436 0.650914C0.0360436 0.823547 0.104806 0.98911 0.227203 1.11118L5.6222 6.48527L0.227203 11.8594C0.15916 11.9175 0.103897 11.989 0.0648818 12.0694C0.0258666 12.1498 0.00394204 12.2374 0.000484374 12.3267C-0.0029733 12.416 0.0121103 12.505 0.0447887 12.5882C0.0774672 12.6714 0.127035 12.747 0.190381 12.8101C0.253726 12.8733 0.329482 12.9227 0.412893 12.9553C0.496305 12.9879 0.585571 13.003 0.675088 12.9995C0.764605 12.9961 0.852442 12.9742 0.933084 12.9353C1.01373 12.8964 1.08543 12.8413 1.1437 12.7734L6.5387 7.39932L11.9272 12.7734C12.0515 12.8796 12.2115 12.9351 12.3751 12.9288C12.5387 12.9225 12.6939 12.8549 12.8096 12.7394C12.9254 12.624 12.9932 12.4692 12.9995 12.306C13.0058 12.1429 12.9502 11.9834 12.8437 11.8594L7.4552 6.48527Z" fill="#3A3E46"/>
</svg>
