<svg width="61" height="60" viewBox="0 0 61 60" fill="none" xmlns="http://www.w3.org/2000/svg">
<path fill-rule="evenodd" clip-rule="evenodd" d="M23.9157 0.761401C13.4125 3.17987 4.96988 10.9149 1.62331 21.1846C0.659684 24.1419 0.500864 25.3862 0.500001 29.9951C0.499569 34.556 0.660949 35.856 1.57753 38.6536C3.26485 43.8044 5.50668 47.4023 9.46905 51.3183C12.3798 54.1953 13.7413 55.172 17.0632 56.7666C27.2259 61.6443 38.2185 60.9775 47.1527 54.9415C56.2305 48.8083 61.0248 39.2749 60.4543 28.4924C60.0301 20.4745 57.5467 14.9399 51.7606 9.11677C48.4033 5.73787 47.3007 4.92685 43.7664 3.23912C37.0128 0.0134904 30.6252 -0.783791 23.9157 0.761401ZM35.9081 1.48355C42.4152 2.82051 47.2829 5.5481 51.8719 10.4288C55.1361 13.9005 56.7902 16.6723 58.2962 21.1937C59.2844 24.1608 59.4415 25.3591 59.4523 29.9951C59.4627 34.6723 59.3172 35.8032 58.3195 38.7966C55.6466 46.8153 50.2191 52.9369 42.6875 56.4261C28.3368 63.0753 11.1568 56.9589 4.33422 42.7723C1.94135 37.7966 1.31992 35.1541 1.32985 29.9951C1.34538 22.0094 4.1659 15.2769 9.87945 9.58733C17.0261 2.47103 26.4445 -0.461361 35.9081 1.48355ZM29.0941 2.83039C28.2129 3.16398 27.8142 3.83418 27.806 4.99426C27.7973 6.27412 25.8795 11.7057 24.7839 13.5527L23.9213 15.0077L25.0545 17.2326C26.5528 20.174 27.7995 23.8354 27.7995 25.2939C27.7995 26.593 28.4464 26.9932 30.532 26.9833C32.4843 26.9739 32.8075 26.6321 33.3689 23.9844C33.6442 22.6856 34.5643 20.1448 35.4136 18.3381L36.958 15.0532L35.6246 12.3274C34.3498 9.72171 32.9779 5.28492 32.9779 3.76892C32.9779 2.83425 30.6006 2.2598 29.0941 2.83039ZM23.2333 3.75561C20.3313 4.58209 16.3724 6.4334 16.5385 6.88635C16.5968 7.04564 18.1762 8.72264 20.0478 10.6122L23.4509 14.0482L24.7062 11.3957C25.3963 9.93638 26.2585 7.43892 26.6218 5.84478C27.3908 2.47103 27.5021 2.5393 23.2333 3.75561ZM33.841 3.42159C33.841 5.35963 36.8497 13.6802 37.5501 13.6802C37.7179 13.6802 38.9422 12.5528 40.2713 11.175C41.6 9.79684 43.2601 8.27398 43.9601 7.79054L45.2323 6.91169L43.0271 5.80013C41.1543 4.85558 35.2305 2.94674 34.1733 2.94674C33.9907 2.94674 33.841 3.16055 33.841 3.42159ZM11.1249 10.8809C9.37802 12.6472 7.94878 14.2615 7.94878 14.4685C7.94878 15.2495 11.1141 18.9263 13.1963 20.5634C15.7113 22.5414 15.6245 22.5637 19.2529 19.0049C22.6905 15.6333 22.8756 15.2422 21.7692 13.6957C20.4858 11.9032 15.6849 7.66947 14.9349 7.66947C14.5862 7.66947 12.8713 9.11462 11.1249 10.8809ZM43.4992 9.3396C40.9872 11.3317 38.5879 14.2036 38.5879 15.2181C38.5879 16.0042 44.7382 22.267 45.5102 22.267C46.2857 22.267 52.8286 15.5049 52.8286 14.7033C52.8286 13.9099 46.8208 7.66947 46.057 7.66947C45.8084 7.66947 44.6575 8.42124 43.4992 9.3396ZM6.75297 16.3954C6.0638 17.2978 4.59099 20.7502 4.14996 22.4958C3.10046 26.6527 3.09872 26.5604 4.22719 26.5604C5.74533 26.5604 10.6463 24.9791 12.5688 23.8689L14.2277 22.911L10.683 19.4007C8.20126 16.9432 7.02268 16.042 6.75297 16.3954ZM50.0012 19.4995L46.5269 23.087L49.3539 24.342C52.3302 25.6631 56.9714 26.8751 57.4046 26.4445C58.0977 25.7545 54.6178 15.7243 53.7357 15.8699C53.5929 15.893 51.9125 17.5267 50.0012 19.4995ZM19.9135 19.7099L16.5588 23.0978L18.1874 23.9221C19.9869 24.8327 25.3579 26.5604 26.3897 26.5604C26.9192 26.5604 26.9908 26.2122 26.7582 24.7649C26.4289 22.7174 24.4866 17.5803 23.756 16.826C23.3874 16.4452 22.4497 17.1489 19.9135 19.7099ZM36.2844 18.5889C35.0618 21.158 33.6537 26.0877 34.0343 26.4664C34.4577 26.888 38.7044 25.7142 41.663 24.3583L44.5224 23.0475L41.0585 19.6519C39.1532 17.7843 37.5492 16.2563 37.4944 16.2563C37.4391 16.2563 36.895 17.306 36.2844 18.5889ZM12.6646 24.8774C11.3419 25.5579 8.91454 26.4368 7.27038 26.8309C5.62579 27.2246 4.03818 27.6088 3.74128 27.6844C3.39907 27.7711 3.20186 28.6156 3.20186 29.9951C3.20186 31.372 3.3995 32.2208 3.74128 32.311C4.03818 32.3891 5.63441 32.7854 7.28892 33.1911C8.94343 33.5973 11.4395 34.4933 12.8364 35.1828L15.3755 36.4361L18.2431 35.0669C19.8204 34.3138 22.47 33.3766 24.1314 32.9846L27.1522 32.2719V29.9951V27.7183L24.0365 26.9902C22.3228 26.5896 19.6775 25.6528 18.1576 24.9083C16.6382 24.1638 15.3216 23.5743 15.2318 23.5975C15.1425 23.6211 13.9868 24.1969 12.6646 24.8774ZM42.2167 25.1054C40.5338 25.9203 37.9704 26.8064 36.5208 27.0748C33.6572 27.6046 33.4224 27.9489 33.772 31.1045C33.9113 32.3634 34.0559 32.4561 36.6883 32.9769C38.2116 33.2778 40.831 34.179 42.5097 34.9793L45.5616 36.4343L48.6557 34.9634C50.3572 34.1541 53.012 33.2431 54.5548 32.9387C57.6778 32.3221 57.9911 32.0718 58.0006 30.1845C58.0101 28.2778 57.248 27.617 54.339 27.0091C52.9149 26.7111 50.3145 25.8125 48.5603 25.0113C46.8061 24.2102 45.3497 23.5705 45.3238 23.5894C45.2979 23.6078 43.8997 24.2901 42.2167 25.1054ZM28.231 29.9951V32.1418H30.4966H32.7622V29.9951V27.8484H30.4966H28.231V29.9951ZM28.5547 33.2963C28.0649 33.4238 27.7995 33.9103 27.7995 34.6822C27.7995 36.2004 26.3823 40.3615 24.9846 42.9461L23.9014 44.949L24.7744 46.4208C25.9175 48.3489 27.7995 53.8818 27.7995 55.3154C27.7995 56.8147 28.5392 57.4728 30.2239 57.4728C32.1226 57.4728 32.9779 57.0864 32.9779 56.229C32.9779 54.7083 34.3463 50.2758 35.6198 47.6727L36.9481 44.9567L35.6029 42.239C34.8633 40.7441 33.9351 38.1989 33.5402 36.5829C33.1453 34.9669 32.6146 33.5024 32.3608 33.3289C31.8667 32.9915 29.7953 32.9739 28.5547 33.2963ZM3.46809 34.8252C3.88884 37.2265 4.99057 40.4341 6.11257 42.5249L7.19184 44.536L8.82866 42.476C9.72885 41.343 11.3721 39.6767 12.4807 38.773L14.4965 37.1299L12.0915 35.92C9.73229 34.7329 5.48985 33.4298 3.98507 33.4298C3.36323 33.4298 3.26829 33.6861 3.46809 34.8252ZM23.4841 34.1202C20.415 34.9398 16.5795 36.6898 16.5795 37.2703C16.5795 37.5193 16.7509 37.7232 16.9606 37.7232C17.1703 37.7232 18.6971 39.0795 20.3529 40.7372C22.6543 43.0402 23.4694 43.6223 23.8108 43.2059C24.8504 41.9363 26.9192 35.9526 26.9312 34.1812C26.9373 33.292 26.6071 33.286 23.4841 34.1202ZM33.841 33.69C33.841 35.2631 36.955 43.734 37.5332 43.734C37.61 43.734 39.2115 42.203 41.0921 40.3315L44.5121 36.9294L41.9013 35.7637C38.2202 34.1202 33.841 32.9936 33.841 33.69ZM53.9075 34.0309C52.7208 34.3216 50.564 35.0918 49.1149 35.7427L46.4794 36.9264L50.1371 40.5654C52.1485 42.5666 53.8449 44.1466 53.9071 44.0766C55.0058 42.8281 57.5756 35.7586 57.5756 33.9837C57.5756 33.3191 56.7733 33.3294 53.9075 34.0309ZM13.4487 39.2126C11.5038 40.69 7.94878 44.779 7.94878 45.5389C7.94878 46.2997 14.2337 52.3208 15.0282 52.3208C15.8597 52.3208 22.621 45.8893 22.621 45.0984C22.621 44.5175 18.1451 39.6909 16.5748 38.5785L15.3889 37.7383L13.4487 39.2126ZM43.4526 39.3882C41.0956 41.2421 38.5879 44.1818 38.5879 45.0911C38.5879 45.9421 42.079 49.7864 44.1457 51.2113C45.776 52.3354 45.9853 52.3792 46.8881 51.7875C48.6211 50.6515 52.8286 46.1816 52.8286 45.4762C52.8286 44.6386 49.539 40.8394 47.2553 39.04L45.5771 37.7176L43.4526 39.3882ZM19.4924 49.8499C17.6527 51.7128 16.148 53.2941 16.148 53.3641C16.148 53.6577 21.6579 55.9208 23.6723 56.4544C27.431 57.4501 27.3839 57.487 26.6205 54.1455C25.905 51.013 23.9666 46.6015 23.2683 46.5161C23.031 46.4869 21.332 47.987 19.4924 49.8499ZM36.1946 48.6748C34.9833 51.3994 33.6067 56.524 33.9847 56.9005C34.4301 57.3436 39.8636 55.7774 42.5343 54.4361L45.0985 53.1481L42.9559 51.463C41.7769 50.536 40.1829 48.9972 39.4126 48.0437C38.6423 47.0901 37.8396 46.31 37.629 46.31C37.418 46.31 36.7729 47.3739 36.1946 48.6748Z" fill="#F6D5CC"/>
</svg>
