<svg width="284" height="94" viewBox="0 0 284 94" fill="none" xmlns="http://www.w3.org/2000/svg">
<path d="M116.662 82.1528H127.929V79.9437H127.358C126.387 79.9437 126.134 79.6062 126.028 79.3523C125.797 78.7964 125.68 78.1259 125.68 77.36L125.652 75.262L125.66 69.2079L125.834 69.1933C126.903 69.1029 127.897 68.3027 128.367 67.1554C128.499 66.8455 128.553 66.5305 128.575 66.3221C128.354 66.3665 128.008 66.412 127.596 66.3996C126.518 66.3597 125.674 65.5101 125.674 64.4651L125.661 62.9017C125.661 62.8989 125.672 61.6506 125.68 61.1968C125.683 60.0586 125.752 58.8866 125.886 57.7163C126.009 56.6342 126.375 55.806 127.039 55.1085L127.197 54.9428V53.6563L115.983 53.6502V55.017L116.23 55.1866C116.73 55.5313 117.147 55.9419 117.472 56.4074C117.801 56.8796 118.057 57.4075 118.23 57.9758C118.411 58.5716 118.545 59.2101 118.628 59.8727C118.712 60.555 118.754 61.2103 118.755 61.8763C118.789 62.7743 118.761 63.2875 118.678 64.1652C118.6 64.9969 118.435 65.5405 118.139 66.3103C117.875 66.9938 117.51 67.5576 117.053 67.986C116.681 68.3342 116.201 68.5217 115.585 68.5588L115.326 68.5532H115.326C114.808 68.5532 114.378 68.4448 114.017 68.223C113.683 68.0135 113.383 67.7092 113.074 67.2644C111.258 64.6521 111.398 62.0297 111.534 59.4931L111.561 58.9782C111.598 58.2493 111.727 57.512 111.957 56.7247C112.096 56.249 112.271 55.7672 112.886 55.1029L113.045 54.9317L113.036 54.6043L113.045 54.6009V53.6491L101.866 53.6429V55.0305L102.134 55.1989C103.375 55.9767 104.057 57.0425 104.219 58.4565L104.225 58.639C104.333 62.7265 104.368 63.7907 104.377 63.9636C104.564 67.3481 107.291 72.3841 114.043 72.3841C115.604 72.3841 116.817 72.1786 117.755 71.7563C118.069 71.6153 118.362 71.4671 118.627 71.316L118.911 71.1532V77.3701C118.911 78.1248 118.787 78.7875 118.542 79.34C118.417 79.6208 118.186 79.9437 117.494 79.9437H116.662V82.1528V82.1528ZM128.31 82.5347H116.282V79.5624H117.494C117.986 79.5624 118.11 79.3759 118.194 79.185C118.417 78.6813 118.53 78.0709 118.53 77.3701V71.8034C118.334 71.9062 118.127 72.0073 117.911 72.1044C116.924 72.5492 115.659 72.7659 114.043 72.7659C107.027 72.7659 104.191 67.5143 103.997 63.9844C103.983 63.7328 103.93 61.8881 103.844 58.6491L103.84 58.4834C103.693 57.2093 103.07 56.235 101.933 55.5229L101.485 55.2427V53.261L113.426 53.2677V55.0816L113.165 55.3629C112.607 55.9654 112.448 56.4018 112.322 56.8319C112.101 57.59 111.976 58.2987 111.941 58.9978L111.914 59.5139C111.782 61.9853 111.645 64.5415 113.386 67.046C113.665 67.4475 113.929 67.7181 114.217 67.8978C114.516 68.0815 114.88 68.1713 115.331 68.1713L115.578 68.1775C116.086 68.1461 116.489 67.9922 116.793 67.7069C117.208 67.3183 117.541 66.8028 117.783 66.1728C118.067 65.4354 118.225 64.9166 118.299 64.1293C118.38 63.269 118.408 62.7669 118.375 61.8842C118.374 61.2266 118.333 60.5864 118.25 59.9199C118.17 59.2786 118.04 58.662 117.866 58.0876C117.704 57.5569 117.467 57.0655 117.16 56.6264C116.861 56.1985 116.476 55.82 116.014 55.5016L115.602 55.2175V53.2683L127.578 53.2745V55.0956L127.314 55.3725C126.711 56.0059 126.378 56.7646 126.264 57.7602C126.132 58.9159 126.064 60.0738 126.061 61.2002C126.053 61.6562 126.042 62.9017 126.042 62.9017L126.054 64.4634C126.054 65.3041 126.738 65.9858 127.609 66.0178C128.253 66.0431 128.718 65.8948 128.723 65.8931L128.968 65.814L128.972 66.0723C128.972 66.0981 128.975 66.6995 128.718 67.3032C128.221 68.5178 127.182 69.3843 126.041 69.5533L126.033 75.2593L126.061 77.3572C126.061 78.0754 126.168 78.6959 126.38 79.2053C126.42 79.303 126.528 79.5624 127.358 79.5624H128.31V82.5347L128.31 82.5347ZM72.7123 62.9959V65.8968C72.9603 65.8222 73.1491 65.7132 73.2437 65.5841C73.3669 65.415 73.3691 65.1174 73.2498 64.7232L72.7123 62.9959V62.9959ZM72.3315 66.368V60.5133L73.6144 64.612C73.7723 65.1337 73.7505 65.5369 73.55 65.8104V65.8109C73.3187 66.126 72.8819 66.2647 72.5566 66.3259L72.3315 66.368V66.368ZM89.8935 62.331L88.7645 65.9715C89.4108 65.7823 89.8834 65.1764 89.8834 64.4806L89.8935 62.331V62.331ZM88.223 66.432L90.2743 59.8153L90.2816 61.2641L90.2642 64.4806C90.2642 65.4734 89.492 66.3197 88.5058 66.4073L88.223 66.432V66.432ZM82.226 68.9624L82.6108 70.2197L83.2419 68.1633C82.9608 68.4957 82.6175 68.7787 82.226 68.9624V68.9624ZM88.0326 82.2027H99.3871V79.9941H98.8159C97.8449 79.9941 97.5929 79.6566 97.4871 79.4027C97.2558 78.8462 97.1382 78.1763 97.1382 77.4104L97.1107 75.3118V69.1921H97.3011C98.3573 69.0972 99.3474 68.2986 99.8155 67.1553C99.9482 66.8442 100.002 66.5297 100.024 66.322C99.8032 66.3663 99.4566 66.4118 99.0438 66.3995C98.0795 66.3641 97.2826 65.6655 97.1494 64.7384C97.1343 64.6244 97.1242 64.5458 97.1242 64.4649L97.1107 62.7589C97.1046 62.1811 97.1135 61.943 97.1247 61.6409C97.1292 61.5263 97.1337 61.4011 97.1382 61.2427C97.141 60.1101 97.2104 58.9387 97.3437 57.7667C97.4697 56.6605 97.8471 55.7906 98.4967 55.1083L98.6552 54.9427V53.6534L88.0903 53.6539L82.6108 71.5191L81.759 68.7394L81.9253 68.676C82.9417 68.2863 83.621 67.1306 83.691 66.2388C83.7095 65.9322 83.6988 65.7452 83.6736 65.5464L83.4737 65.5869C83.4088 65.5947 82.9249 65.6385 82.8449 65.6385C81.1089 65.6385 80.6429 64.9366 80.4156 64.2504L79.8365 62.5399C79.724 62.1317 79.5246 61.4213 79.4165 61.1428L77.1575 53.5938L71.1 53.618H66.2225L66.2354 54.9814L66.4353 55.1504C67.4713 56.0304 67.917 56.7385 68.024 57.6786C68.1606 58.8752 68.2295 60.0708 68.2295 61.232V77.3844C68.2295 78.1386 68.1057 78.7996 67.8627 79.3493C67.6779 79.661 66.769 79.958 66.0517 79.958H65.2195V82.1666H75.3415V79.958H74.7708C73.914 79.958 72.9094 79.6896 72.7016 79.4055L72.6798 79.3662C72.4485 78.8108 72.3315 78.1437 72.3315 77.3844V68.1733L72.6372 68.4075C73.2151 68.8494 73.8233 69.2464 74.9069 69.2464H75.0469L79.0307 82.1801H83.341L87.8103 67.764L88.0343 68.0262C88.6234 68.7158 89.3772 69.1471 90.1035 69.2083L90.2776 69.2229V74.2358C90.2776 75.6936 90.2816 77.4198 90.2816 77.4198C90.2816 78.1751 90.1573 78.8378 89.9125 79.3903C89.7882 79.6711 89.5569 79.994 88.8659 79.994H88.0326V82.2026L88.0326 82.2027ZM99.7674 82.5845H87.6524V79.6122H88.8659C89.357 79.6122 89.4769 79.4336 89.5648 79.2348C89.7877 78.7317 89.9008 78.1207 89.9008 77.4199C89.9008 77.4199 89.8969 75.6937 89.8969 74.2359V69.5683C89.2215 69.4644 88.5406 69.0938 87.9733 68.5227L83.6215 82.5615H78.7496L74.7658 69.6262C73.8401 69.5981 73.2269 69.2932 72.7123 68.9355V77.3846C72.7123 78.0798 72.8159 78.6868 73.0191 79.1905C73.1552 79.3118 73.9291 79.5763 74.7708 79.5763H75.7222V82.5486H64.8387V79.5763H66.0517C66.7298 79.5763 67.4371 79.2922 67.5273 79.1709C67.7367 78.6941 67.8487 78.0854 67.8487 77.3846V61.2322C67.8487 60.0849 67.7804 58.9034 67.646 57.7219C67.5508 56.8903 67.1425 56.2512 66.1889 55.442L65.8562 55.159L65.8383 53.2363H71.0989L77.4403 53.2116L79.7766 61.0188C79.8858 61.2996 80.0897 62.024 80.2011 62.4294L80.7773 64.1304C80.9577 64.6751 81.2808 65.2563 82.8448 65.2563C82.8997 65.2563 83.3516 65.2175 83.4149 65.2097L83.9911 65.094L84.0214 65.2911C84.0337 65.3708 84.0443 65.4444 84.0533 65.5174L87.8092 53.2722H99.0354V55.0955L98.7722 55.3724C98.182 55.9924 97.8382 56.7897 97.7222 57.8107C97.5901 58.9686 97.5218 60.1254 97.519 61.2485C97.5145 61.413 97.5094 61.5393 97.505 61.6556C97.4932 61.9633 97.4854 62.1857 97.4921 62.7557L97.505 64.4634C97.505 64.5285 97.5139 64.5914 97.5218 64.6543C97.6332 65.4281 98.2778 65.9896 99.0578 66.0177C99.7029 66.043 100.167 65.8947 100.171 65.8936L100.417 65.8144L100.42 66.0728C100.42 66.098 100.424 66.6995 100.167 67.3031C99.6699 68.5161 98.6317 69.3831 97.4921 69.5521V75.3091L97.5189 77.4082C97.5189 78.1253 97.6265 78.7458 97.8381 79.2552C97.879 79.3534 97.9865 79.6123 98.8159 79.6123H99.7673V82.5846L99.7674 82.5845ZM244.815 82.1907H256.236V79.9821H255.665C254.694 79.9821 254.441 79.6446 254.335 79.3902C254.104 78.8343 253.987 78.1644 253.987 77.3984L253.959 75.2999V69.1953L254.134 69.1812C255.202 69.0908 256.196 68.2906 256.666 67.1433C256.798 66.8334 256.852 66.5189 256.875 66.3094C256.654 66.3544 256.308 66.4015 255.895 66.3869C254.817 66.3476 253.973 65.498 253.973 64.4529L253.959 62.747C254 62.0259 254.027 61.5581 253.989 61.2611C253.99 60.0998 254.059 58.9284 254.193 57.7548C254.318 56.6581 254.695 55.7922 255.346 55.1088L255.503 54.9431V53.642H245.424L245.465 54.9504L245.616 55.1088C246.349 55.8792 246.743 56.7036 246.858 57.7026C246.994 58.8992 247.063 60.0948 247.063 61.2566V64.9314H239.524V61.3083C239.524 60.1481 239.593 58.9526 239.73 57.7548C239.855 56.6581 240.232 55.7922 240.883 55.1088L241.041 54.9431V53.642H230.963L231 54.9498L231.151 55.1088C231.886 55.8803 232.281 56.7047 232.394 57.7026C232.531 58.8992 232.6 60.0931 232.6 61.2516L232.589 63.8414L232.582 63.8409V64.4928C232.57 65.5278 231.726 66.3673 230.663 66.4061C230.249 66.4223 229.904 66.3729 229.683 66.328C229.705 66.5374 229.759 66.8514 229.891 67.1597C230.361 68.3091 231.355 69.1088 232.421 69.1998L232.596 69.2144V74.2234C232.596 75.4072 232.599 76.7667 232.6 77.2384V77.408C232.6 78.1632 232.476 78.8264 232.23 79.3784C232.107 79.6598 231.875 79.9821 231.184 79.9821H230.352V82.1907H241.773V79.9821H241.202C240.23 79.9821 239.978 79.6446 239.872 79.3902C239.641 78.8349 239.524 78.1677 239.524 77.408V68.8039H247.063V77.408C247.063 78.1632 246.939 78.8264 246.693 79.3784C246.57 79.6598 246.338 79.9821 245.647 79.9821H244.815V82.1907V82.1907ZM256.617 82.5725H244.434V79.6008H245.647C246.138 79.6008 246.258 79.4217 246.346 79.2235C246.569 78.7197 246.682 78.1093 246.682 77.408V69.1852H239.905V77.408C239.905 78.1172 240.012 78.7344 240.224 79.2431C240.264 79.3408 240.372 79.6008 241.202 79.6008H242.154V82.5725H229.971V79.6008H231.184C231.675 79.6008 231.795 79.4217 231.883 79.2235C232.106 78.7197 232.219 78.1093 232.219 77.408L232.219 77.2389C232.218 76.7672 232.215 75.4072 232.215 74.2234V69.5597C231.075 69.3901 230.037 68.5231 229.539 67.3079C229.283 66.7065 229.287 66.1045 229.287 66.0792L229.289 65.8203L229.536 65.8995C229.541 65.9006 230.001 66.0478 230.649 66.0242C231.509 65.9933 232.191 65.3194 232.202 64.4906V63.4253L232.212 63.4259L232.219 61.2516C232.219 60.1077 232.151 58.9279 232.016 57.7458C231.913 56.835 231.55 56.0808 230.876 55.3727L230.623 55.1071L230.571 53.2596H241.421V55.0958L241.158 55.3727C240.566 55.9932 240.223 56.7872 240.108 57.798C239.973 58.9812 239.905 60.1621 239.905 61.3083V64.5495H246.682V61.2566C246.682 60.1094 246.614 58.9278 246.479 57.7458C246.375 56.8338 246.014 56.0797 245.34 55.3727L245.089 55.1082L245.031 53.2596H255.885V55.0958L255.621 55.3721C255.029 55.9932 254.686 56.7872 254.571 57.798C254.439 58.9576 254.37 60.1144 254.368 61.2369C254.41 61.5435 254.382 62.0259 254.34 62.7565L254.354 64.4513C254.354 65.2914 255.037 65.9736 255.909 66.0056C256.548 66.0264 257.017 65.8821 257.022 65.881L257.267 65.8018L257.271 66.0601C257.271 66.0854 257.275 66.6874 257.018 67.291C256.52 68.5051 255.481 69.3721 254.34 69.5412V75.2976L254.368 77.3956C254.368 78.1132 254.475 78.7343 254.687 79.2431C254.727 79.3408 254.836 79.6008 255.665 79.6008H256.617V82.5725V82.5725ZM272.938 67.6315C272.539 67.8965 271.705 68.3969 270.826 68.9242C269.971 69.4369 269.096 69.9614 268.775 70.1787C268.631 70.2764 267.364 71.1676 267.364 72.4036L267.362 73.101C267.358 74.2005 267.353 75.1495 267.462 76.0665L267.467 76.1154C267.521 76.9886 267.821 77.6602 268.385 78.1729C268.959 78.6946 269.614 78.9479 270.387 78.9479C271.213 78.9479 271.821 78.7002 272.245 78.1898C272.706 77.6361 272.938 76.8005 272.938 75.7071V67.6315V67.6315ZM270.387 79.3303C269.515 79.3303 268.776 79.0439 268.13 78.4554C267.489 77.8725 267.147 77.1161 267.087 76.1435L267.084 76.1053C266.973 75.1709 266.977 74.2112 266.981 73.0999L266.984 72.403C266.984 70.9699 268.401 69.9715 268.563 69.8625C268.891 69.6396 269.771 69.1123 270.621 68.6024C271.566 68.0358 272.449 67.5057 272.801 67.2642C272.874 67.2142 272.945 67.1637 273.014 67.1103L273.32 66.8756V75.7071C273.32 76.892 273.056 77.8101 272.537 78.4346C272.036 79.0371 271.333 79.3303 270.387 79.3303V79.3303ZM268.713 57.1383C270.056 57.1383 271.19 57.4416 272.083 58.0385C272.915 58.5944 273.32 59.6227 273.32 61.181V62.6545L273.273 62.7084C272.713 63.3547 272.277 63.5541 271.409 63.9522L271.326 63.9904C270.335 64.4453 265.738 66.6319 264.595 67.2603C261.514 68.9545 260.491 70.8357 259.99 72.1037C259.821 72.5327 259.295 74.0955 259.646 76.2075C259.948 78.2499 260.844 79.8155 262.311 80.8661C263.907 82.01 266.673 82.4155 268.557 82.4155C269.906 82.4155 271.141 82.2195 272.226 81.832C272.988 81.5597 273.646 81.1694 274.182 80.6718L274.336 80.5275L274.463 80.6966C274.949 81.3435 275.744 82.1156 276.767 82.1156H283.538V79.7868H282.967C282.105 79.7868 281.626 79.6672 281.375 79.5656C281.033 79.4286 280.776 79.2567 280.612 79.0546C280.451 78.8563 280.355 78.6233 280.316 78.342C280.268 77.9848 280.244 77.6052 280.244 77.2132V69.2072L280.417 69.1926C281.484 69.1011 282.476 68.3014 282.946 67.1553C283.077 66.8459 283.132 66.5309 283.154 66.3214C282.936 66.3658 282.593 66.4112 282.185 66.3995L282.125 66.3922C282.089 66.3894 282.054 66.3843 282.019 66.3798L281.968 66.3736C281.432 66.2984 280.965 66.0294 280.648 65.6161C280.392 65.2735 280.257 64.8743 280.257 64.4604L280.244 61.9677C280.244 59.2425 279.361 57.1676 277.618 55.8002C275.73 54.3188 272.456 53.7909 270.02 53.7909C268.728 53.7909 267.244 54.0375 266.145 54.4345C263.219 55.4913 262.087 56.9598 261.653 58.0054C261.289 58.622 261.104 59.2975 261.104 59.9826C261.104 62.0952 262.818 63.8141 264.924 63.8141C267.031 63.8141 268.745 62.0952 268.745 59.9826C268.745 59.0695 268.42 58.1862 267.832 57.4955L267.6 57.222L267.956 57.1822C268.216 57.153 268.47 57.1383 268.713 57.1383V57.1383ZM268.557 82.7973C266.617 82.7973 263.76 82.3727 262.091 81.1772C260.536 80.0642 259.587 78.4116 259.271 76.2664C258.904 74.0612 259.458 72.4148 259.636 71.9627C260.159 70.6402 261.223 68.6793 264.411 66.9256C265.561 66.2933 270.174 64.0993 271.167 63.6428L271.249 63.6057C272.068 63.2306 272.455 63.0531 272.938 62.5112V61.1809C272.938 59.7596 272.59 58.8359 271.872 58.3563C271.042 57.8015 269.979 57.5202 268.713 57.5202C268.593 57.5202 268.47 57.5235 268.343 57.532C268.849 58.2423 269.125 59.1004 269.125 59.9826C269.125 62.3057 267.241 64.1953 264.924 64.1953C262.608 64.1953 260.723 62.3057 260.723 59.9826C260.723 59.229 260.928 58.4855 261.314 57.8341C261.765 56.7419 262.959 55.1796 266.016 54.0745C267.153 53.664 268.688 53.4091 270.02 53.4091C272.519 53.4091 275.889 53.9583 277.853 55.4997C279.692 56.9429 280.624 59.1189 280.624 61.9677L280.637 64.4604C280.637 64.7912 280.746 65.1112 280.951 65.3853C281.205 65.7172 281.584 65.9345 282.016 65.9946L282.071 66.0019C282.108 66.0069 282.146 66.0125 282.186 66.0125L282.298 66.0198C282.883 66.0356 283.297 65.8946 283.302 65.8929L283.547 65.8149L283.55 66.0732C283.55 66.0979 283.554 66.6993 283.297 67.3035C282.799 68.5159 281.763 69.3824 280.624 69.552V77.2132C280.624 77.5878 280.648 77.95 280.694 78.2903C280.722 78.5003 280.792 78.6716 280.907 78.8142C281.03 78.9653 281.235 79.0989 281.516 79.2118C281.737 79.2999 282.167 79.405 282.967 79.405H283.918V82.4974H276.767C275.675 82.4974 274.832 81.7663 274.286 81.0896C273.743 81.5568 273.093 81.9274 272.353 82.1914C271.227 82.5934 269.95 82.7973 268.557 82.7973H268.557ZM136.593 83.7366C135.188 83.7366 133.902 84.6205 133.392 85.9356C133.072 86.5747 132.92 87.2631 132.92 88.0566C132.92 90.0872 133.844 91.6781 135.666 92.7843C136.603 93.3374 137.698 93.6188 138.918 93.6188C141.638 93.6188 143.683 92.3659 144.996 89.8951C145.587 88.8096 146.111 87.49 146.599 85.8598C146.678 85.6038 154.485 60.3497 154.692 59.7274C154.893 59.1226 155.124 58.5223 155.379 57.9422C155.596 57.4486 155.877 56.9405 156.239 56.3873C156.676 55.7208 157.365 55.1575 157.598 54.9772V53.6627H149.575V55.0126L149.794 55.1845C150.173 55.4838 150.462 55.8959 150.626 56.3761C150.797 56.873 150.883 57.3571 150.883 57.8159C150.883 58.1702 150.85 58.5745 150.784 59.0165C150.738 59.3304 150.671 59.6808 150.578 60.0896H150.577C150.56 60.1868 150.509 60.4002 150.508 60.4024C150.383 60.8848 146.934 72.036 146.244 74.2665L146.061 74.8567L144.194 68.7617L144.346 68.692C145.262 68.2748 145.822 67.145 145.955 66.2729C146.008 65.9236 146.005 65.6434 145.99 65.4592C145.819 65.5367 145.577 65.6282 145.322 65.6675C145.248 65.6759 145.179 65.681 145.107 65.681C143.374 65.681 142.914 64.9813 142.692 64.2962L142.125 62.5885C141.917 61.8097 141.794 61.3458 141.666 61.0825C141.293 59.9251 140.984 58.7593 140.739 57.593C140.513 56.5159 140.599 55.6815 141.002 55.0396L141.105 54.8751V53.6627H131.061V55.2002C131.299 55.2777 131.785 55.4619 132.115 55.7601C132.797 56.3738 133.236 57.2695 133.507 57.8889C134.033 59.0872 134.491 60.2856 134.868 61.4503L135.888 64.6522C136.042 65.1733 136.018 65.5766 135.816 65.85C135.437 66.3627 134.519 66.406 134.51 66.4065H134.509C134.209 66.4065 133.933 66.3655 133.741 66.3285C133.768 66.5581 133.824 66.9063 133.937 67.2101C134.42 68.4927 135.788 69.3586 137.195 69.2721L137.34 69.2637L138.1 71.552L142.567 85.5919L141.698 87.5792C141.158 88.864 140.445 89.5278 139.386 89.73L138.854 89.8316L139.205 89.4177C139.737 88.7944 140.03 88.0004 140.03 87.1828C140.03 85.2825 138.488 83.7365 136.593 83.7365L136.593 83.7366ZM138.918 94C137.629 94 136.469 93.7013 135.471 93.1122C133.525 91.9301 132.539 90.2297 132.539 88.0565C132.539 87.2019 132.705 86.4572 133.045 85.7806C133.604 84.3363 135.033 83.3547 136.593 83.3547C138.698 83.3547 140.41 85.0719 140.41 87.1828C140.41 87.8965 140.21 88.5934 139.838 89.1965C140.483 88.9163 140.96 88.3519 141.348 87.4282L142.162 85.5706L137.738 71.671L137.071 69.659C135.542 69.6994 134.104 68.7358 133.581 67.3443C133.371 66.7833 133.34 66.1195 133.339 66.0915L133.328 65.8264L133.582 65.9C133.586 65.9011 134.02 66.0246 134.502 66.0246C134.736 66.0151 135.302 65.9039 135.509 65.6231C135.635 65.453 135.64 65.1548 135.523 64.7606L135.388 64.3041L134.506 61.5682C134.132 60.4159 133.679 59.2293 133.159 58.0427C132.995 57.6682 132.56 56.6742 131.86 56.0442C131.485 55.705 130.829 55.5281 130.822 55.5259L130.68 55.4883V53.2814H141.486L141.486 54.9857L141.324 55.2429C140.976 55.7965 140.907 56.5395 141.112 57.5138C141.354 58.6677 141.659 59.8206 142.019 60.9409C142.151 61.2127 142.279 61.6889 142.489 62.479L143.054 64.1771C143.23 64.7207 143.548 65.2991 145.107 65.2991C145.164 65.2991 145.218 65.2952 145.271 65.289C145.664 65.2283 146.042 65.0065 146.045 65.0043L146.266 64.8735L146.327 65.1228C146.332 65.1419 146.442 65.604 146.331 66.3301C146.191 67.2533 145.609 68.4404 144.654 68.9643L146.063 73.5629C147.927 67.5369 150.047 60.6624 150.139 60.3074C150.154 60.2468 150.202 60.0278 150.206 60.0104C150.297 59.6061 150.363 59.2641 150.408 58.9603C150.47 58.5369 150.502 58.1517 150.502 57.8158C150.502 57.3997 150.423 56.9572 150.266 56.5007C150.125 56.0902 149.88 55.7387 149.558 55.4843L149.194 55.1979V53.2808H157.978V55.1692L157.9 55.2265C157.892 55.2327 157.039 55.8616 156.557 56.5967C156.207 57.1324 155.936 57.6227 155.727 58.0961C155.477 58.6655 155.25 59.2545 155.053 59.8475C154.851 60.4557 147.042 85.7165 146.963 85.9708C146.468 87.6257 145.934 88.9684 145.332 90.0758C143.947 92.6791 141.789 93.9999 138.918 93.9999V94ZM171.051 82.1776H182.405V79.969H181.834C180.863 79.969 180.611 79.631 180.505 79.3766C180.274 78.8212 180.156 78.1513 180.156 77.3848L180.129 75.2868V69.8982L184.874 77.6964C185.399 78.5011 185.667 79.1542 185.667 79.6327C185.667 79.6866 185.662 79.7343 185.654 79.7742L185.631 79.8809L185.528 79.9157C185.457 79.9398 185.361 79.9516 185.244 79.9516H184.464V82.1602H196.513V79.9516H195.942C195.08 79.9516 194.408 79.6978 193.888 79.1756C193.293 78.5792 192.739 77.8716 192.24 77.0709L184.853 65.3519L184.917 65.2496C185.354 64.5544 186.352 62.9838 188.121 60.285L188.253 60.0834L188.419 60.2591C189.19 61.0784 190.28 61.5485 191.409 61.5485C193.681 61.5485 195.53 59.6942 195.53 57.4155C195.53 55.1372 193.681 53.283 191.409 53.283C191.261 53.283 191.114 53.292 190.987 53.3055C190.674 53.3319 190.36 53.3998 190.024 53.5144C188.353 54.0832 186.658 55.7201 184.842 58.5189C182.364 62.3391 181.088 64.523 180.655 65.2845L180.476 65.5989L180.318 65.2727C180.206 65.0408 180.143 64.7942 180.13 64.5404L180.139 63.7514C180.139 63.7514 180.112 61.353 180.107 60.6292C180.103 60.0171 180.119 59.4561 180.134 58.9614C180.147 58.5105 180.16 58.0775 180.16 57.6361C180.16 56.7 180.818 55.6039 181.433 55.167L181.674 54.9963V53.6284H171.679V54.9716L171.889 55.1434C171.903 55.1552 173.254 56.2946 173.254 57.7423C173.254 58.36 173.266 58.9451 173.277 59.5275L173.279 59.587C173.289 60.1334 173.3 60.677 173.3 61.2419L173.293 64.4978C173.286 64.7662 173.224 65.0256 173.108 65.2721L172.952 65.6035L172.771 65.2851C172.337 64.5225 171.059 62.3358 168.583 58.5189C166.767 55.7202 165.072 54.0832 163.401 53.5144C163.069 53.4015 162.753 53.3319 162.461 53.3077C161.177 53.1696 159.936 53.6284 159.046 54.5594C158.336 55.3731 158.178 55.9206 158.176 55.9257C157.987 56.4215 157.895 56.9168 157.895 57.4155C157.895 59.6942 159.743 61.5485 162.016 61.5485C163.145 61.5485 164.235 61.0785 165.006 60.2592L165.172 60.0834L165.304 60.285C167.073 62.9838 168.071 64.5545 168.508 65.2497L168.572 65.3519L168.508 65.4541L161.182 77.0754C160.685 77.8722 160.132 78.5792 159.537 79.1756C159.017 79.6978 158.345 79.9517 157.483 79.9517H156.912V82.1602H168.961V79.9517H168.181C168.035 79.9517 167.946 79.932 167.897 79.9157L167.793 79.8809L167.771 79.7742C167.763 79.7343 167.758 79.6866 167.758 79.6327C167.758 79.1548 168.03 78.4944 168.567 77.6712L173.296 69.8982V74.2103C173.296 75.6687 173.3 77.3943 173.3 77.3943C173.3 78.1502 173.176 78.8128 172.931 79.3654C172.807 79.6461 172.575 79.9691 171.884 79.9691H171.051V82.1776V82.1776ZM182.786 82.5595H170.671V79.5872H171.884C172.375 79.5872 172.495 79.4086 172.583 79.2098C172.807 78.7067 172.92 78.0963 172.92 77.3949C172.92 77.3949 172.915 75.6687 172.915 74.2103V71.2566L168.888 77.875C168.313 78.7583 168.16 79.2772 168.141 79.5692C168.154 79.5692 168.167 79.5698 168.181 79.5698H169.342V82.5421H156.532V79.5698H157.483C158.239 79.5698 158.823 79.3525 159.268 78.9055C159.842 78.3299 160.378 77.6459 160.86 76.8721L168.122 65.3519C167.668 64.6308 166.722 63.145 165.114 60.6904C164.285 61.4817 163.169 61.9303 162.016 61.9303C159.534 61.9303 157.514 59.9048 157.514 57.4155C157.514 56.8702 157.615 56.3289 157.815 55.8072C157.815 55.8004 157.985 55.1951 158.762 54.3045L158.767 54.2983C159.737 53.283 161.062 52.7742 162.497 52.9281C162.815 52.9539 163.162 53.0297 163.523 53.1522C165.278 53.7502 167.038 55.4377 168.902 58.3111C171.062 61.6395 172.313 63.7329 172.888 64.7252C172.902 64.6482 172.91 64.5707 172.912 64.4921L172.92 61.2419C172.92 60.6798 172.908 60.1379 172.898 59.5948L172.897 59.5348C172.885 58.9508 172.873 58.3628 172.873 57.7423C172.873 56.4878 171.658 55.4478 171.646 55.4377L171.298 55.1524V53.2465H182.054V55.1929L181.653 55.4787C181.128 55.8521 180.541 56.8534 180.541 57.6362C180.541 58.0809 180.528 58.5178 180.515 58.9682C180.5 59.464 180.483 60.0216 180.488 60.6264C180.493 61.3508 180.519 63.7514 180.519 63.7514L180.51 64.5326C180.514 64.5977 180.522 64.664 180.535 64.7291C181.108 63.7402 182.358 61.6473 184.523 58.3111C186.387 55.4371 188.146 53.7502 189.902 53.1527C190.267 53.0286 190.61 52.954 190.951 52.9259C191.086 52.9107 191.246 52.9017 191.409 52.9017C193.891 52.9017 195.911 54.9267 195.911 57.4155C195.911 59.9048 193.891 61.9304 191.409 61.9304C190.256 61.9304 189.14 61.4817 188.311 60.6905C186.703 63.145 185.757 64.6309 185.303 65.3519L192.563 76.8676C193.046 77.6442 193.582 78.3288 194.157 78.9055C194.603 79.3525 195.187 79.5698 195.942 79.5698H196.893V82.5421H184.083V79.5698H185.244C185.259 79.5698 185.271 79.5693 185.284 79.5693C185.266 79.3143 185.137 78.7971 184.552 77.9003L180.51 71.2566V75.2841L180.537 77.382C180.537 78.1002 180.645 78.7207 180.856 79.2295C180.897 79.3278 181.005 79.5872 181.834 79.5872H182.786V82.5595V82.5595ZM49.6688 64.5493H55.3936C55.2939 61.4709 54.7104 57.9039 52.5421 57.9039C50.4516 57.9039 49.8379 61.2378 49.6912 64.0355V64.0372C49.6783 64.2427 49.6716 64.423 49.6688 64.5493H49.6688ZM55.785 64.9312H49.2852V64.7402C49.2852 64.7402 49.2852 64.4269 49.3109 64.0141C49.5338 59.7666 50.6516 57.5221 52.5421 57.5221C54.5374 57.5221 55.6574 60.0165 55.78 64.7357L55.785 64.9311V64.9312ZM38.7349 66.2317C38.7271 66.4597 38.745 66.8219 38.8822 67.1931L38.885 67.2009C39.2618 68.378 40.2239 69.1428 41.4587 69.2472L41.6334 69.2618L41.6323 70.2232C41.6323 72.3768 41.956 73.7571 42.4409 75.1671C44.4788 81.0842 49.2415 82.3263 52.8782 82.3263C60.0069 82.3263 62.2043 76.2037 62.2939 75.9432C62.6372 74.947 62.8343 73.8037 62.8483 72.7255L62.8562 72.1448L59.0896 72.151L59.0566 72.6901C59.0174 73.3196 58.9983 73.6324 58.7771 74.4668C58.0805 77.1039 56.4789 78.332 53.7383 78.332C51.3085 78.332 50.24 76.311 49.7719 74.6151C49.4935 73.6071 49.4728 73.1276 49.4275 72.0763L49.4191 71.8759C49.3675 70.7067 49.3412 69.7448 49.3412 69.0176V68.5936H62.8153L62.8472 68.0551C62.8562 67.9119 63.0528 64.5117 62.1881 61.2732C60.9488 56.6314 58.0447 54.0792 53.5558 53.6867L53.4718 53.6777C53.3984 53.6698 53.3251 53.6625 53.25 53.6575C53.2231 53.6563 53.1957 53.6552 53.1632 53.6552C52.9359 53.6434 52.7141 53.6367 52.4873 53.6367C47.5767 53.6367 44.009 56.1434 42.441 60.6954C42.217 61.3457 42.0484 61.951 41.9252 62.5451C41.8003 63.1376 41.68 63.9513 41.657 64.1079L41.6189 64.4988C41.6195 65.5466 40.7543 66.4148 39.6908 66.4148C39.3162 66.4148 38.9617 66.3137 38.7349 66.2317L38.7349 66.2317ZM52.8781 82.7083C49.1178 82.7083 44.192 81.4212 42.0814 75.2913C41.5836 73.8453 41.2521 72.4302 41.2521 70.2233L41.2526 69.6084C39.9618 69.4354 38.9253 68.5723 38.5238 67.3218C38.2628 66.6114 38.3754 65.951 38.3804 65.9229L38.4246 65.6736L38.6514 65.7848C38.6565 65.7876 39.1633 66.033 39.6908 66.033C40.5442 66.033 41.2392 65.3367 41.2392 64.4803L41.2784 64.0659C41.3036 63.894 41.4257 63.0697 41.5528 62.4671C41.6788 61.8579 41.8518 61.2368 42.0814 60.5714C43.706 55.8532 47.4014 53.2549 52.4873 53.2549C52.7213 53.2549 52.9498 53.2616 53.1733 53.274C53.2035 53.274 53.2393 53.274 53.2735 53.2762C53.3547 53.2813 53.4336 53.2897 53.512 53.2981L53.5927 53.3066C58.2541 53.7142 61.2708 56.362 62.5554 61.175C63.4363 64.4724 63.2364 67.9327 63.2274 68.0782L63.1737 68.9755H49.7221V69.0176C49.7221 69.7398 49.7478 70.6955 49.7993 71.8596L49.8083 72.0601C49.852 73.081 49.8716 73.5477 50.1387 74.5135C50.5716 76.0814 51.5477 77.9502 53.7383 77.9502C56.279 77.9502 57.7636 76.8125 58.4093 74.3692C58.6204 73.5712 58.6394 73.2708 58.6758 72.6722L58.7313 71.7732L59.6245 71.7636H63.2415L63.2292 72.7306C63.214 73.8486 63.0102 75.0335 62.654 76.0679C62.5605 76.3391 60.2746 82.7082 52.8782 82.7082L52.8781 82.7083ZM213.877 82.1891H225.299V79.9806H224.728C223.757 79.9806 223.503 79.6431 223.398 79.3892C223.167 78.8333 223.05 78.1628 223.05 77.3968L223.022 75.2983V69.2078L223.197 69.1926C224.265 69.1022 225.258 68.3025 225.728 67.1553C225.86 66.8453 225.914 66.5303 225.937 66.3219C225.717 66.3663 225.372 66.4157 224.96 66.3994H224.616L224.644 66.3562C224.522 66.3343 224.401 66.3006 224.28 66.2545C224.092 66.1799 223.914 66.076 223.752 65.9434C223.296 65.57 223.036 65.027 223.036 64.4514L223.022 62.7454C223.044 61.9104 223.046 61.6532 223.049 61.3354L223.05 61.2332C223.053 60.0966 223.122 58.9257 223.255 57.7532C223.381 56.6576 223.758 55.7923 224.408 55.1089L224.566 54.9427V53.6404H214.494L214.52 54.9477L214.673 55.1083C215.411 55.8832 215.807 56.7065 215.92 57.701C216.057 58.8988 216.126 60.0943 216.126 61.2545V61.7891L208.587 67.7561V61.3067C208.587 60.146 208.656 58.951 208.792 57.7538C208.918 56.6576 209.295 55.7923 209.945 55.1083L210.104 54.9427V53.6404H200.01L200.081 54.9556L200.227 55.1083C200.952 55.8698 201.343 56.693 201.458 57.701C201.594 58.8977 201.662 60.0915 201.662 61.25L201.643 64.466C201.643 65.5099 200.799 66.3601 199.722 66.3994C199.307 66.4135 198.962 66.3663 198.742 66.3219C198.764 66.5303 198.817 66.8442 198.949 67.153C199.364 68.1655 200.175 68.9213 201.066 69.1274C201.204 69.1611 201.339 69.1825 201.482 69.1943L201.657 69.2089L201.659 74.2218C201.659 75.4056 201.662 76.7651 201.663 77.2363V77.4064C201.663 78.1617 201.539 78.8243 201.293 79.3769C201.17 79.6577 200.938 79.9806 200.247 79.9806H199.414V82.1891H210.836V79.9806H210.265C209.293 79.9806 209.04 79.6431 208.935 79.3892C208.704 78.8333 208.587 78.1656 208.587 77.4064V72.7062L216.126 66.7386V77.4064C216.126 78.1617 216.002 78.8243 215.756 79.3769C215.633 79.6577 215.401 79.9806 214.71 79.9806H213.877V82.1891L213.877 82.1891ZM225.679 82.571H213.496V79.5987H214.71C215.201 79.5987 215.321 79.4207 215.409 79.2219C215.632 78.7182 215.745 78.1078 215.745 77.4064V67.5265L208.967 72.891V77.4064C208.967 78.1151 209.075 78.7328 209.287 79.2421C209.327 79.3398 209.435 79.5987 210.265 79.5987H211.217V82.571H199.033V79.5987H200.247C200.738 79.5987 200.858 79.4207 200.946 79.2219C201.169 78.7182 201.282 78.1078 201.282 77.4064V77.2374C201.281 76.7657 201.278 75.4056 201.278 74.2219L201.276 69.5554C201.176 69.5419 201.078 69.5228 200.979 69.4992C199.971 69.2656 199.058 68.4233 198.598 67.3008C198.342 66.6993 198.346 66.0979 198.346 66.0721L198.348 65.8138L198.594 65.8929C198.599 65.8941 199.065 66.0429 199.708 66.0176C200.579 65.9862 201.263 65.3039 201.263 64.4649L201.282 61.2489C201.282 60.1062 201.214 58.9263 201.079 57.7443C200.974 56.8239 200.616 56.0697 199.952 55.3723L199.709 55.1173L199.608 53.2586H210.484V55.0954L210.221 55.3723C209.63 55.9934 209.286 56.7868 209.171 57.7971C209.035 58.9797 208.967 60.1606 208.967 61.3068V66.9689L215.745 61.6038V61.2545C215.745 60.109 215.677 58.928 215.543 57.7443C215.439 56.8374 215.075 56.0832 214.398 55.3723L214.143 55.1044L214.104 53.2586H224.948V55.0955L224.684 55.3723C224.092 55.9939 223.749 56.7869 223.634 57.7965C223.502 58.955 223.433 60.1118 223.431 61.2349L223.429 61.3388C223.427 61.6577 223.425 61.9161 223.403 62.7488L223.417 64.4498C223.417 64.9114 223.626 65.3477 223.992 65.6476C224.124 65.7543 224.268 65.8391 224.418 65.8986C224.599 65.9682 224.784 66.0036 224.965 66.0036L225.087 66.0204C225.671 66.0289 226.079 65.8941 226.084 65.893L226.329 65.8138L226.333 66.0721C226.333 66.0979 226.336 66.6994 226.079 67.303C225.582 68.5165 224.544 69.3836 223.403 69.5531V75.2956L223.431 77.3941C223.431 78.1123 223.538 78.7328 223.75 79.2422C223.79 79.3399 223.898 79.5988 224.728 79.5988H225.679V82.571V82.571ZM145.43 80.1991H142.943C142.835 80.1991 142.748 80.1109 142.748 80.0025C142.748 79.8947 142.835 79.8065 142.943 79.8065H145.43C145.538 79.8065 145.626 79.8947 145.626 80.0025C145.626 80.1109 145.538 80.1991 145.43 80.1991ZM144.874 82.037H143.529C143.421 82.037 143.334 81.9494 143.334 81.841C143.334 81.7327 143.421 81.645 143.529 81.645H144.874C144.982 81.645 145.07 81.7327 145.07 81.841C145.07 81.9494 144.982 82.037 144.874 82.037ZM144.536 84.0844H143.952C143.844 84.0844 143.757 83.9968 143.757 83.8884C143.757 83.7801 143.844 83.6919 143.952 83.6919H144.536C144.644 83.6919 144.731 83.7801 144.731 83.8884C144.731 83.9968 144.644 84.0844 144.536 84.0844ZM142.219 78.2651C142.219 78.1567 142.306 78.0691 142.414 78.0691H144.901C145.009 78.0691 145.097 78.1567 145.097 78.2651C145.097 78.374 145.009 78.4616 144.901 78.4616H142.414C142.306 78.4616 142.219 78.374 142.219 78.2651ZM141.69 76.5276C141.69 76.4198 141.778 76.3317 141.885 76.3317H144.372C144.48 76.3317 144.568 76.4198 144.568 76.5276C144.568 76.636 144.48 76.7242 144.372 76.7242H141.885C141.778 76.7242 141.69 76.636 141.69 76.5276ZM141.161 74.7902C141.161 74.6818 141.248 74.5942 141.356 74.5942H143.843C143.952 74.5942 144.039 74.6818 144.039 74.7902C144.039 74.8986 143.952 74.9867 143.843 74.9867H141.356C141.248 74.9867 141.161 74.8986 141.161 74.7902ZM140.632 73.0528C140.632 72.9444 140.72 72.8568 140.828 72.8568H143.315C143.423 72.8568 143.51 72.9444 143.51 73.0528C143.51 73.1611 143.423 73.2493 143.315 73.2493H140.828C140.72 73.2493 140.632 73.1611 140.632 73.0528ZM140.103 71.3153C140.103 71.2069 140.191 71.1193 140.299 71.1193H142.786C142.894 71.1193 142.981 71.2069 142.981 71.3153C142.981 71.4242 142.894 71.5118 142.786 71.5118H140.299C140.191 71.5118 140.103 71.4242 140.103 71.3153ZM139.987 69.5779C139.987 69.47 140.074 69.3819 140.182 69.3819H141.527C141.635 69.3819 141.723 69.47 141.723 69.5779C141.723 69.6862 141.635 69.7744 141.527 69.7744H140.182C140.074 69.7744 139.987 69.6862 139.987 69.5779ZM150.131 54.2144V54.7136C150.618 55.0983 150.958 55.6098 151.15 56.1692C151.342 56.729 151.438 57.2703 151.438 57.7954C151.438 58.1801 151.403 58.608 151.333 59.0802C151.279 59.4441 151.205 59.8147 151.121 60.1893C151.121 60.1893 151.063 60.4493 151.046 60.5217C150.923 61.0114 146.043 76.7736 146.043 76.7736L143.701 69.1488C142.525 68.9967 141.364 68.2796 140.985 67.1082C140.929 66.9363 140.899 66.7712 140.882 66.6101C141.509 67.695 142.152 68.1515 143.319 68.1515C144.364 68.1515 145.29 67.1284 145.368 66.2159C145.279 66.2265 145.187 66.2327 145.091 66.2327C143.71 66.2327 142.582 65.8374 142.133 64.4526C142.133 64.4526 142.125 64.4531 142.12 64.4537L141.559 62.7236C141.559 62.7236 141.166 61.2512 141.127 61.3085C140.742 60.1202 140.421 58.914 140.164 57.6904C139.907 56.4668 140.019 55.4824 140.502 54.7136L140.502 54.2144H131.616V54.7136C131.616 54.7136 132.155 54.918 132.562 55.3981C133.143 56.0843 133.737 57.0059 134.014 57.6376C134.55 58.8612 135.011 60.0674 135.396 61.2562L135.625 61.9756L136.434 64.4695C136.428 64.4695 136.42 64.4683 136.42 64.4683C137.131 66.8785 134.54 66.9689 134.444 66.9582C134.831 67.873 135.703 68.5092 136.893 68.5092C137.727 68.5092 139.022 68.0718 139.145 66.9375C139.233 67.0986 139.629 68.6985 137.955 69.3639L138.628 71.3591L143.161 85.6035L142.209 87.7784C141.363 89.7927 140.108 90.3542 138.501 90.3542C138.04 90.3542 137.639 90.2065 137.318 89.9353C138.541 89.6068 139.442 88.4915 139.442 87.1618C139.442 85.5748 138.159 84.2883 136.577 84.2883C135.348 84.2883 134.302 85.0661 133.895 86.1555C133.593 86.7434 133.475 87.3701 133.475 88.0367C133.475 89.8505 134.279 91.2617 135.937 92.2691C136.792 92.7728 137.796 93.0249 138.902 93.0249C141.415 93.0249 143.274 91.8659 144.48 89.5984C145.083 88.4899 145.586 87.1798 146.038 85.6681C146.038 85.6681 153.924 60.1551 154.134 59.5256C154.343 58.8967 154.579 58.2846 154.84 57.6905C155.102 57.0958 155.407 56.5455 155.755 56.0384C156.104 55.5313 156.522 55.1034 157.01 54.7536V54.2145H150.131V54.2144ZM220.872 71.5117H218.385C218.276 71.5117 218.189 71.4242 218.189 71.3152C218.189 71.2074 218.276 71.1192 218.385 71.1192H220.872C220.979 71.1192 221.067 71.2074 221.067 71.3152C221.067 71.4242 220.979 71.5117 220.872 71.5117ZM220.872 73.2492H218.385C218.276 73.2492 218.189 73.1616 218.189 73.0532C218.189 72.9443 218.276 72.8567 218.385 72.8567H220.872C220.979 72.8567 221.067 72.9443 221.067 73.0532C221.067 73.1616 220.979 73.2492 220.872 73.2492ZM220.872 74.9866H218.385C218.276 74.9866 218.189 74.8985 218.189 74.7901C218.189 74.6823 218.276 74.5941 218.385 74.5941H220.872C220.979 74.5941 221.067 74.6823 221.067 74.7901C221.067 74.8985 220.979 74.9866 220.872 74.9866ZM220.872 76.7241H218.385C218.276 76.7241 218.189 76.6359 218.189 76.5281C218.189 76.4197 218.276 76.3315 218.385 76.3315H220.872C220.979 76.3315 221.067 76.4197 221.067 76.5281C221.067 76.6359 220.979 76.7241 220.872 76.7241ZM220.872 78.4615H218.385C218.276 78.4615 218.189 78.3739 218.189 78.265C218.189 78.1566 218.276 78.069 218.385 78.069H220.872C220.979 78.069 221.067 78.1566 221.067 78.265C221.067 78.3739 220.979 78.4615 220.872 78.4615ZM220.872 80.199H218.385C218.276 80.199 218.189 80.1108 218.189 80.003C218.189 79.8946 218.276 79.8064 218.385 79.8064H220.872C220.979 79.8064 221.067 79.8946 221.067 80.003C221.067 80.1108 220.979 80.199 220.872 80.199ZM218.956 69.3818H220.3C220.408 69.3818 220.496 69.47 220.496 69.5783C220.496 69.6867 220.408 69.7743 220.3 69.7743H218.956C218.848 69.7743 218.76 69.6867 218.76 69.5783C218.76 69.47 218.848 69.3818 218.956 69.3818ZM206.434 71.5117H203.947C203.839 71.5117 203.751 71.4242 203.751 71.3152C203.751 71.2074 203.839 71.1192 203.947 71.1192H206.434C206.542 71.1192 206.629 71.2074 206.629 71.3152C206.629 71.4242 206.542 71.5117 206.434 71.5117ZM206.434 73.2492H203.947C203.839 73.2492 203.751 73.1616 203.751 73.0532C203.751 72.9443 203.839 72.8567 203.947 72.8567H206.434C206.542 72.8567 206.629 72.9443 206.629 73.0532C206.629 73.1616 206.542 73.2492 206.434 73.2492ZM206.434 74.9866H203.947C203.839 74.9866 203.751 74.8985 203.751 74.7901C203.751 74.6823 203.839 74.5941 203.947 74.5941H206.434C206.542 74.5941 206.629 74.6823 206.629 74.7901C206.629 74.8985 206.542 74.9866 206.434 74.9866ZM206.434 76.7241H203.947C203.839 76.7241 203.751 76.6359 203.751 76.5281C203.751 76.4197 203.839 76.3315 203.947 76.3315H206.434C206.542 76.3315 206.629 76.4197 206.629 76.5281C206.629 76.6359 206.542 76.7241 206.434 76.7241ZM206.434 78.4615H203.947C203.839 78.4615 203.751 78.3739 203.751 78.265C203.751 78.1566 203.839 78.069 203.947 78.069H206.434C206.542 78.069 206.629 78.1566 206.629 78.265C206.629 78.3739 206.542 78.4615 206.434 78.4615ZM206.434 80.199H203.947C203.839 80.199 203.751 80.1108 203.751 80.003C203.751 79.8946 203.839 79.8064 203.947 79.8064H206.434C206.542 79.8064 206.629 79.8946 206.629 80.003C206.629 80.1108 206.542 80.199 206.434 80.199ZM204.518 69.3818H205.863C205.971 69.3818 206.058 69.47 206.058 69.5783C206.058 69.6867 205.971 69.7743 205.863 69.7743H204.518C204.41 69.7743 204.322 69.6867 204.322 69.5783C204.322 69.47 204.41 69.3818 204.518 69.3818ZM222.871 79.6093C222.61 78.9798 222.479 78.2459 222.479 77.4069L222.451 75.2961V69.3964C221.325 69.2437 220.455 68.2783 220.455 67.1069C220.455 66.9351 220.479 66.77 220.515 66.6089C220.79 67.6938 221.767 68.4968 222.935 68.4968C223.98 68.4968 224.874 67.8538 225.247 66.9413C225.154 66.9514 225.06 66.9581 224.965 66.9581C223.584 66.9581 222.465 65.8362 222.465 64.4514C222.465 64.4514 222.456 64.4519 222.451 64.4525V62.7224C222.451 62.7224 222.479 61.2124 222.479 61.1652C222.484 60.0224 222.554 58.8634 222.688 57.6886C222.828 56.465 223.263 55.4829 223.995 54.7135V54.2126H215.076L215.087 54.7135C215.819 55.4829 216.348 56.4128 216.488 57.6364C216.627 58.86 216.697 60.0662 216.697 61.2545V62.067L208.016 68.9382V64.5586V61.3073C208.016 60.1185 208.086 58.9123 208.225 57.6886C208.365 56.465 208.8 55.4828 209.533 54.7135V54.2126H200.613L200.64 54.7135C201.372 55.4828 201.885 56.4128 202.025 57.6364C202.164 58.86 202.234 60.0662 202.234 61.2545L202.23 61.9744L202.216 64.4671C202.216 65.8513 201.097 66.9739 199.717 66.9739C199.621 66.9739 199.527 66.9671 199.434 66.957C199.807 67.8695 200.701 68.5125 201.746 68.5125C202.914 68.5125 203.891 67.7095 204.166 66.624C204.202 66.7852 204.225 66.9503 204.225 67.1227C204.225 68.2941 203.357 69.2594 202.23 69.4121V74.2224C202.23 75.6807 202.234 77.4069 202.234 77.4069C202.234 78.2459 202.095 78.9798 201.816 79.6093C201.537 80.2388 201.013 80.5533 200.247 80.5533H199.985V81.6169H210.265V80.5533C209.288 80.5533 208.669 80.2388 208.408 79.6093C208.146 78.9798 208.016 78.2459 208.016 77.4069V72.4288L216.697 65.5571V77.4069C216.697 78.2459 216.557 78.9798 216.278 79.6093C216 80.2388 215.476 80.5533 214.71 80.5533H214.448V81.6169H224.728V80.5533C223.752 80.5533 223.132 80.2388 222.871 79.6093V79.6093ZM251.81 71.5117H249.323C249.215 71.5117 249.127 71.4242 249.127 71.3152C249.127 71.2074 249.215 71.1192 249.323 71.1192H251.81C251.917 71.1192 252.006 71.2074 252.006 71.3152C252.006 71.4242 251.917 71.5117 251.81 71.5117ZM251.81 73.2492H249.323C249.215 73.2492 249.127 73.1616 249.127 73.0532C249.127 72.9443 249.215 72.8567 249.323 72.8567H251.81C251.917 72.8567 252.006 72.9443 252.006 73.0532C252.006 73.1616 251.917 73.2492 251.81 73.2492ZM251.81 74.9866H249.323C249.215 74.9866 249.127 74.8985 249.127 74.7901C249.127 74.6823 249.215 74.5941 249.323 74.5941H251.81C251.917 74.5941 252.006 74.6823 252.006 74.7901C252.006 74.8985 251.917 74.9866 251.81 74.9866ZM251.81 76.7241H249.323C249.215 76.7241 249.127 76.6359 249.127 76.5281C249.127 76.4197 249.215 76.3315 249.323 76.3315H251.81C251.917 76.3315 252.006 76.4197 252.006 76.5281C252.006 76.6359 251.917 76.7241 251.81 76.7241ZM251.81 78.4615H249.323C249.215 78.4615 249.127 78.3739 249.127 78.265C249.127 78.1566 249.215 78.069 249.323 78.069H251.81C251.917 78.069 252.006 78.1566 252.006 78.265C252.006 78.3739 251.917 78.4615 251.81 78.4615ZM251.81 80.199H249.323C249.215 80.199 249.127 80.1108 249.127 80.003C249.127 79.8946 249.215 79.8064 249.323 79.8064H251.81C251.917 79.8064 252.006 79.8946 252.006 80.003C252.006 80.1108 251.917 80.199 251.81 80.199ZM249.894 69.3818H251.238C251.346 69.3818 251.434 69.47 251.434 69.5783C251.434 69.6867 251.346 69.7743 251.238 69.7743H249.894C249.786 69.7743 249.698 69.6867 249.698 69.5783C249.698 69.47 249.786 69.3818 249.894 69.3818ZM237.372 71.5117H234.885C234.777 71.5117 234.689 71.4242 234.689 71.3152C234.689 71.2074 234.777 71.1192 234.885 71.1192H237.372C237.48 71.1192 237.567 71.2074 237.567 71.3152C237.567 71.4242 237.48 71.5117 237.372 71.5117ZM237.372 73.2492H234.885C234.777 73.2492 234.689 73.1616 234.689 73.0532C234.689 72.9443 234.777 72.8567 234.885 72.8567H237.372C237.48 72.8567 237.567 72.9443 237.567 73.0532C237.567 73.1616 237.48 73.2492 237.372 73.2492ZM237.372 74.9866H234.885C234.777 74.9866 234.689 74.8985 234.689 74.7901C234.689 74.6823 234.777 74.5941 234.885 74.5941H237.372C237.48 74.5941 237.567 74.6823 237.567 74.7901C237.567 74.8985 237.48 74.9866 237.372 74.9866ZM237.372 76.7241H234.885C234.777 76.7241 234.689 76.6359 234.689 76.5281C234.689 76.4197 234.777 76.3315 234.885 76.3315H237.372C237.48 76.3315 237.567 76.4197 237.567 76.5281C237.567 76.6359 237.48 76.7241 237.372 76.7241ZM237.372 78.4615H234.885C234.777 78.4615 234.689 78.3739 234.689 78.265C234.689 78.1566 234.777 78.069 234.885 78.069H237.372C237.48 78.069 237.567 78.1566 237.567 78.265C237.567 78.3739 237.48 78.4615 237.372 78.4615ZM237.372 80.199H234.885C234.777 80.199 234.689 80.1108 234.689 80.003C234.689 79.8946 234.777 79.8064 234.885 79.8064H237.372C237.48 79.8064 237.567 79.8946 237.567 80.003C237.567 80.1108 237.48 80.199 237.372 80.199ZM235.456 69.3818H236.801C236.909 69.3818 236.997 69.47 236.997 69.5783C236.997 69.6867 236.909 69.7743 236.801 69.7743H235.456C235.348 69.7743 235.26 69.6867 235.26 69.5783C235.26 69.47 235.348 69.3818 235.456 69.3818ZM253.807 79.6104C253.546 78.9815 253.414 78.2476 253.414 77.4081L253.387 75.2977V69.3975C252.261 69.2453 251.391 68.28 251.391 67.1081C251.391 66.9368 251.415 66.7711 251.451 66.61C251.726 67.6949 252.703 68.4985 253.871 68.4985C254.916 68.4985 255.81 67.8555 256.184 66.943C256.091 66.9531 255.997 66.9598 255.901 66.9598C254.52 66.9598 253.4 65.8373 253.4 64.453C253.4 64.453 253.392 64.4536 253.387 64.4542V62.7235C253.387 62.7235 253.472 61.2511 253.414 61.3089C253.414 60.1201 253.484 58.9139 253.624 57.6903C253.763 56.4666 254.2 55.4828 254.932 54.7135V54.2143H246.011L246.028 54.7135C246.759 55.4828 247.284 56.4144 247.424 57.6375C247.563 58.8617 247.633 60.0673 247.633 61.2561V65.5043H239.841H238.951V64.5603V61.3089C238.951 60.1201 239.022 58.9139 239.161 57.6903C239.3 56.4667 239.736 55.4828 240.469 54.7135V54.2143H231.548L231.563 54.7135C232.295 55.4828 232.821 56.4144 232.961 57.6375C233.1 58.8617 233.17 60.0673 233.17 61.2561L233.166 61.9761V64.4693C233.16 64.4688 233.152 64.4688 233.152 64.4688C233.152 65.853 232.033 66.975 230.652 66.975C230.557 66.975 230.462 66.9688 230.37 66.9581C230.743 67.8712 231.637 68.5142 232.682 68.5142C233.849 68.5142 234.827 67.7106 235.102 66.6257C235.138 66.7869 235.161 66.952 235.161 67.1238C235.161 68.2952 234.292 69.2611 233.166 69.4132V74.224C233.166 75.6824 233.17 77.4081 233.17 77.4081C233.17 78.2476 233.031 78.9815 232.752 79.6104C232.473 80.2399 231.949 80.555 231.183 80.555H230.921V81.6186H241.2V80.555C240.224 80.555 239.606 80.2399 239.344 79.6104C239.082 78.9815 238.951 78.2476 238.951 77.4081V68.2312H247.633V77.4081C247.633 78.2476 247.493 78.9815 247.215 79.6104C246.936 80.2399 246.412 80.555 245.646 80.555H245.384V81.6186H255.663V80.555C254.687 80.555 254.068 80.2399 253.807 79.6104V79.6104ZM278.98 80.1991H276.493C276.385 80.1991 276.297 80.1109 276.297 80.0025C276.297 79.8947 276.385 79.8065 276.493 79.8065H278.98C279.087 79.8065 279.175 79.8947 279.175 80.0025C279.175 80.1109 279.087 80.1991 278.98 80.1991ZM275.385 78.2651C275.385 78.1567 275.472 78.0691 275.581 78.0691H278.067C278.175 78.0691 278.263 78.1567 278.263 78.2651C278.263 78.374 278.175 78.4616 278.067 78.4616H275.581C275.472 78.4616 275.385 78.374 275.385 78.2651ZM275.581 76.3317H278.067C278.175 76.3317 278.263 76.4198 278.263 76.5276C278.263 76.636 278.175 76.7242 278.067 76.7242H275.581C275.472 76.7242 275.385 76.636 275.385 76.5276C275.385 76.4198 275.472 76.3317 275.581 76.3317ZM275.581 74.5942H278.067C278.175 74.5942 278.263 74.6818 278.263 74.7902C278.263 74.8986 278.175 74.9868 278.067 74.9868H275.581C275.472 74.9868 275.385 74.8986 275.385 74.7902C275.385 74.6818 275.472 74.5942 275.581 74.5942ZM275.581 72.8568H278.067C278.175 72.8568 278.263 72.9444 278.263 73.0528C278.263 73.1612 278.175 73.2493 278.067 73.2493H275.581C275.472 73.2493 275.385 73.1612 275.385 73.0528C275.385 72.9444 275.472 72.8568 275.581 72.8568ZM275.581 71.1193H278.067C278.175 71.1193 278.263 71.2069 278.263 71.3153C278.263 71.4243 278.175 71.5119 278.067 71.5119H275.581C275.472 71.5119 275.385 71.4243 275.385 71.3153C275.385 71.2069 275.472 71.1193 275.581 71.1193ZM276.151 69.3819H277.496C277.604 69.3819 277.692 69.4701 277.692 69.5779C277.692 69.6863 277.604 69.7744 277.496 69.7744H276.151C276.044 69.7744 275.956 69.6863 275.956 69.5779C275.956 69.4701 276.044 69.3819 276.151 69.3819ZM273.889 75.7072C273.889 77.0358 273.584 78.0674 272.974 78.8014C272.364 79.5353 271.501 79.9026 270.385 79.9026C269.375 79.9026 268.494 79.5617 267.745 78.88C266.995 78.1982 266.585 77.2981 266.516 76.1789C266.376 75.0053 266.411 73.7996 266.411 72.4036C266.411 70.9666 267.544 69.8598 268.241 69.3881C268.938 68.9158 271.815 67.2469 272.478 66.792C273.14 66.3372 273.61 65.761 273.889 65.0613V75.7072H273.889ZM266.803 80.1991H264.316C264.208 80.1991 264.12 80.1109 264.12 80.0025C264.12 79.8947 264.208 79.8065 264.316 79.8065H266.803C266.911 79.8065 266.998 79.8947 266.998 80.0025C266.998 80.1109 266.911 80.1991 266.803 80.1991ZM262.573 78.2651C262.573 78.1567 262.66 78.0691 262.769 78.0691H265.255C265.364 78.0691 265.451 78.1567 265.451 78.2651C265.451 78.374 265.364 78.4616 265.255 78.4616H262.769C262.66 78.4616 262.573 78.374 262.573 78.2651ZM261.899 76.5276C261.899 76.4198 261.986 76.3317 262.095 76.3317H264.581C264.689 76.3317 264.777 76.4198 264.777 76.5276C264.777 76.636 264.689 76.7242 264.581 76.7242H262.095C261.986 76.7242 261.899 76.636 261.899 76.5276ZM262.095 74.5942H264.581C264.689 74.5942 264.777 74.6818 264.777 74.7902C264.777 74.8986 264.689 74.9867 264.581 74.9867H262.095C261.986 74.9867 261.899 74.8986 261.899 74.7902C261.899 74.6818 261.986 74.5942 262.095 74.5942ZM262.095 72.8568H264.581C264.689 72.8568 264.777 72.9444 264.777 73.0528C264.777 73.1611 264.689 73.2493 264.581 73.2493H262.095C261.986 73.2493 261.899 73.1611 261.899 73.0528C261.899 72.9444 261.986 72.8568 262.095 72.8568ZM262.61 71.1193H265.097C265.205 71.1193 265.293 71.2069 265.293 71.3153C265.293 71.4243 265.205 71.5118 265.097 71.5118H262.61C262.502 71.5118 262.414 71.4243 262.414 71.3153C262.414 71.2069 262.502 71.1193 262.61 71.1193ZM264.173 69.3819H265.517C265.625 69.3819 265.713 69.47 265.713 69.5779C265.713 69.6862 265.625 69.7744 265.517 69.7744H264.173C264.065 69.7744 263.977 69.6862 263.977 69.5779C263.977 69.47 264.065 69.3819 264.173 69.3819ZM281.161 80.0974C280.726 79.9228 280.395 79.6953 280.168 79.4157C279.941 79.136 279.802 78.8042 279.75 78.4195C279.698 78.0348 279.671 77.6328 279.671 77.2133V69.4049C278.545 69.2527 277.675 68.2869 277.675 67.1155C277.675 66.9442 277.7 66.7785 277.735 66.6174C278.01 67.7023 278.988 68.5059 280.155 68.5059C281.2 68.5059 282.094 67.8623 282.468 66.9498C282.374 66.9605 282.28 66.9672 282.185 66.9672C280.804 66.9672 279.685 65.8447 279.685 64.4599C279.685 64.4599 279.676 64.4605 279.671 64.461V61.9672C279.671 59.4149 278.869 57.5101 277.266 56.2511C275.662 54.9927 272.739 54.3632 270.019 54.3632C268.799 54.3632 267.37 54.6002 266.337 54.9731C263.868 55.8648 262.617 57.1193 262.159 58.2755C261.853 58.7725 261.674 59.356 261.674 59.9832C261.674 61.7824 263.128 63.2413 264.923 63.2413C266.718 63.2413 268.172 61.7824 268.172 59.9832C268.172 58.6259 267.345 57.4641 266.169 56.9739C266.342 56.9205 266.519 56.8722 266.698 56.8278C267.414 56.6532 268.085 56.5662 268.712 56.5662C270.177 56.5662 271.406 56.898 272.399 57.5624C273.392 58.2267 273.889 59.4329 273.889 61.181V62.8589C273.133 63.8068 272.591 64.0387 271.562 64.511C270.534 64.9827 265.985 67.1481 264.868 67.7624C261.895 69.3976 260.963 71.1935 260.52 72.3143C260.361 72.7158 259.885 74.1708 260.21 76.1267C260.489 78.0146 261.301 79.4393 262.642 80.4007C263.985 81.362 266.463 81.8427 268.555 81.8427C269.845 81.8427 271.005 81.6597 272.033 81.2924C273.062 80.9252 273.855 80.3395 274.412 79.5353C274.691 80.1294 275.626 81.5428 276.766 81.5428H282.966V80.3597C282.199 80.3597 281.598 80.2726 281.161 80.0974H281.161ZM178.007 71.5117H175.52C175.412 71.5117 175.325 71.4242 175.325 71.3152C175.325 71.2074 175.412 71.1192 175.52 71.1192H178.007C178.115 71.1192 178.203 71.2074 178.203 71.3152C178.203 71.4242 178.115 71.5117 178.007 71.5117ZM178.007 73.2492H175.52C175.412 73.2492 175.325 73.1616 175.325 73.0532C175.325 72.9443 175.412 72.8567 175.52 72.8567H178.007C178.115 72.8567 178.203 72.9443 178.203 73.0532C178.203 73.1616 178.115 73.2492 178.007 73.2492ZM178.007 74.9866H175.52C175.412 74.9866 175.325 74.8985 175.325 74.7901C175.325 74.6823 175.412 74.5941 175.52 74.5941H178.007C178.115 74.5941 178.203 74.6823 178.203 74.7901C178.203 74.8985 178.115 74.9866 178.007 74.9866ZM178.007 76.7241H175.52C175.412 76.7241 175.325 76.6359 175.325 76.5281C175.325 76.4197 175.412 76.3315 175.52 76.3315H178.007C178.115 76.3315 178.203 76.4197 178.203 76.5281C178.203 76.6359 178.115 76.7241 178.007 76.7241ZM178.007 78.4615H175.52C175.412 78.4615 175.325 78.3739 175.325 78.265C175.325 78.1566 175.412 78.069 175.52 78.069H178.007C178.115 78.069 178.203 78.1566 178.203 78.265C178.203 78.3739 178.115 78.4615 178.007 78.4615ZM178.007 80.199H175.52C175.412 80.199 175.325 80.1108 175.325 80.003C175.325 79.8946 175.412 79.8064 175.52 79.8064H178.007C178.115 79.8064 178.203 79.8946 178.203 80.003C178.203 80.1108 178.115 80.199 178.007 80.199ZM176.092 69.3818H177.436C177.544 69.3818 177.632 69.47 177.632 69.5783C177.632 69.6867 177.544 69.7743 177.436 69.7743H176.092C175.984 69.7743 175.896 69.6867 175.896 69.5783C175.896 69.47 175.984 69.3818 176.092 69.3818ZM179.986 79.6104C179.725 78.9815 179.594 78.2476 179.594 77.4081L179.567 75.2977V69.3975C178.44 69.2453 177.571 68.28 177.571 67.1081C177.571 66.9368 177.595 66.7711 177.63 66.61C177.905 67.6949 178.883 68.4985 180.05 68.4985C181.095 68.4985 181.989 67.8555 182.363 66.943C182.27 66.9531 182.176 66.9598 182.08 66.9598C180.699 66.9598 179.565 65.8373 179.565 64.453C179.565 64.453 179.572 64.4536 179.567 64.4542C179.567 64.4542 179.552 61.7065 179.545 60.6457C179.537 59.5322 179.598 58.6101 179.598 57.6493C179.598 56.5357 180.338 55.2627 181.111 54.7135V54.2143H172.258V54.7135C172.258 54.7135 173.833 56.0056 173.833 57.7554C173.833 58.9751 173.88 60.0673 173.88 61.2561L173.876 64.4693C173.87 64.4688 173.873 64.4688 173.873 64.4688C173.873 65.853 172.743 66.975 171.362 66.975C171.266 66.975 171.172 66.9688 171.079 66.9581C171.453 67.8712 172.347 68.5142 173.392 68.5142C174.559 68.5142 175.537 67.7106 175.812 66.6257C175.847 66.7869 175.872 66.952 175.872 67.1238C175.872 68.2952 175.002 69.2611 173.876 69.4132V74.224C173.876 75.6824 173.88 77.4081 173.88 77.4081C173.88 78.2476 173.74 78.9815 173.461 79.6104C173.182 80.2399 172.659 80.555 171.893 80.555H171.631V81.6186H181.843V80.555C180.867 80.555 180.248 80.2399 179.986 79.6104V79.6104ZM191.678 80.1991H189.191C189.083 80.1991 188.996 80.1109 188.996 80.0025C188.996 79.8947 189.083 79.8065 189.191 79.8065H191.678C191.786 79.8065 191.874 79.8947 191.874 80.0025C191.874 80.1109 191.786 80.1991 191.678 80.1991ZM187.846 78.2701C187.846 78.1623 187.933 78.0742 188.041 78.0742H190.528C190.636 78.0742 190.724 78.1623 190.724 78.2701C190.724 78.3785 190.636 78.4667 190.528 78.4667H188.041C187.933 78.4667 187.846 78.3785 187.846 78.2701ZM186.695 76.5377C186.695 76.4299 186.783 76.3418 186.891 76.3418H189.378C189.486 76.3418 189.573 76.4299 189.573 76.5377C189.573 76.6461 189.486 76.7343 189.378 76.7343H186.891C186.783 76.7343 186.695 76.6461 186.695 76.5377ZM185.82 75.0019C185.712 75.0019 185.624 74.9137 185.624 74.8059C185.624 74.6975 185.712 74.6094 185.82 74.6094H188.307C188.415 74.6094 188.503 74.6975 188.503 74.8059C188.503 74.9137 188.415 75.0019 188.307 75.0019H185.82ZM184.749 73.2695C184.641 73.2695 184.553 73.1814 184.553 73.073C184.553 72.9652 184.641 72.877 184.749 72.877H187.236C187.344 72.877 187.432 72.9652 187.432 73.073C187.432 73.1814 187.344 73.2695 187.236 73.2695H184.749ZM183.442 71.3406C183.442 71.2322 183.53 71.1446 183.638 71.1446H186.125C186.233 71.1446 186.321 71.2322 186.321 71.3406C186.321 71.4489 186.233 71.5371 186.125 71.5371H183.638C183.53 71.5371 183.442 71.4489 183.442 71.3406ZM183.262 69.5779C183.262 69.47 183.35 69.3819 183.458 69.3819H184.803C184.911 69.3819 184.998 69.47 184.998 69.5779C184.998 69.6862 184.911 69.7744 184.803 69.7744H183.458C183.35 69.7744 183.262 69.6862 183.262 69.5779ZM193.492 79.5931C192.865 78.9642 192.289 78.2297 191.766 77.3907L184.187 65.3674C184.187 65.3674 185.285 63.5788 188.262 59.0561C188.851 60.2028 190.042 60.989 191.417 60.989C193.378 60.989 194.968 59.3953 194.968 57.4287C194.968 55.4627 193.378 53.869 191.417 53.869C191.29 53.869 191.163 53.8763 191.039 53.8893C190.799 53.91 190.529 53.9634 190.216 54.0695C188.694 54.5878 187.087 56.1349 185.33 58.8444C182.258 63.5799 181.015 65.8368 181.015 65.8368C181.307 66.4068 183.052 66.4995 183.052 66.4995C183.052 66.4995 182.708 68.8467 180.473 69.3639L185.357 77.3907C185.95 78.2999 186.246 79.0518 186.246 79.6459C186.246 80.24 185.915 80.5377 185.252 80.5377H185.044V81.6007H195.95V80.5377C194.939 80.5377 194.12 80.2226 193.492 79.5931V79.5931ZM166.425 76.7341H163.938C163.83 76.7341 163.742 76.6465 163.742 76.5381C163.742 76.4297 163.83 76.3415 163.938 76.3415H166.425C166.534 76.3415 166.621 76.4297 166.621 76.5381C166.621 76.6465 166.534 76.7341 166.425 76.7341ZM165.275 78.4664H162.788C162.68 78.4664 162.593 78.3788 162.593 78.2705C162.593 78.1621 162.68 78.0745 162.788 78.0745H165.275C165.383 78.0745 165.471 78.1621 165.471 78.2705C165.471 78.3788 165.383 78.4664 165.275 78.4664ZM164.125 80.1988H161.638C161.53 80.1988 161.443 80.1112 161.443 80.0029C161.443 79.8945 161.53 79.8069 161.638 79.8069H164.125C164.232 79.8069 164.32 79.8945 164.32 80.0029C164.32 80.1112 164.232 80.1988 164.125 80.1988ZM165.01 74.6091H167.496C167.604 74.6091 167.692 74.6973 167.692 74.8057C167.692 74.9141 167.604 75.0017 167.496 75.0017H165.01C164.901 75.0017 164.814 74.9141 164.814 74.8057C164.814 74.6973 164.901 74.6091 165.01 74.6091ZM166.08 72.8768H168.567C168.675 72.8768 168.763 72.9649 168.763 73.0727C168.763 73.1811 168.675 73.2693 168.567 73.2693H166.08C165.972 73.2693 165.885 73.1811 165.885 73.0727C165.885 72.9649 165.972 72.8768 166.08 72.8768ZM167.191 71.1444H169.678C169.786 71.1444 169.873 71.2325 169.873 71.3409C169.873 71.4487 169.786 71.5369 169.678 71.5369H167.191C167.083 71.5369 166.996 71.4487 166.996 71.3409C166.996 71.2325 167.083 71.1444 167.191 71.1444ZM168.514 69.3817H169.858C169.967 69.3817 170.054 69.4698 170.054 69.5782C170.054 69.6866 169.967 69.7742 169.858 69.7742H168.514C168.406 69.7742 168.318 69.6866 168.318 69.5782C168.318 69.4698 168.406 69.3817 168.514 69.3817ZM167.196 79.6463C167.196 79.0516 167.492 78.2997 168.085 77.3905L172.968 69.3637C170.734 68.8465 170.391 66.4998 170.391 66.4998C170.391 66.4998 172.136 66.4071 172.426 65.8371C172.426 65.8371 171.185 63.5797 168.113 58.8442C166.355 56.1347 164.748 54.5876 163.226 54.0699C162.914 53.9637 162.643 53.9098 162.403 53.8896C162.279 53.8767 162.153 53.8688 162.025 53.8688C160.064 53.8688 158.475 55.4631 158.475 57.4291C158.475 59.395 160.064 60.9887 162.025 60.9887C163.4 60.9887 164.59 60.2031 165.18 59.0559C168.157 63.5792 169.255 65.3671 169.255 65.3671L161.676 77.3905C161.153 78.23 160.577 78.9645 159.95 79.5935C159.322 80.223 158.503 80.5374 157.492 80.5374V81.601H168.398V80.5374H168.189C167.527 80.5374 167.196 80.2404 167.196 79.6463H167.196ZM14.5195 82.1906H25.874V79.982H25.3028C24.3318 79.982 24.0792 79.6445 23.9734 79.3901C23.7421 78.8342 23.6245 78.1642 23.6245 77.3983L23.5976 75.2997V69.9111L28.3425 77.7094C28.8672 78.5141 29.1349 79.1671 29.1349 79.6461C29.1349 79.7001 29.131 79.7472 29.1226 79.7871L29.0996 79.8944L28.9966 79.9292C28.9473 79.9449 28.8583 79.9645 28.7121 79.9645H27.9326V82.1737H39.9809V79.9645H39.4097C38.5484 79.9645 37.8764 79.7107 37.3556 79.1885C36.7615 78.5921 36.2076 77.8846 35.7087 77.0838L28.3212 65.3648L28.3851 65.2631C28.8224 64.5674 29.8198 62.9967 31.5894 60.2985L31.7215 60.0963L31.8873 60.2721C32.6584 61.0914 33.7481 61.5614 34.8777 61.5614C37.1496 61.5614 38.9981 59.7077 38.9981 57.429C38.9981 55.1502 37.1496 53.2965 34.8777 53.2965C34.7293 53.2965 34.5825 53.3049 34.4554 53.3184C34.1418 53.3453 33.8277 53.4127 33.4922 53.5278C31.8212 54.0961 30.1266 55.7331 28.3106 58.5318C25.832 62.3521 24.5564 64.5365 24.1229 65.298L23.9437 65.613L23.7864 65.2862C23.6761 65.0576 23.6122 64.8139 23.5982 64.5623L23.6049 63.761C23.6049 63.761 23.5803 61.366 23.5753 60.6421C23.5713 60.0514 23.587 59.5123 23.6021 58.9906C23.6161 58.5262 23.6284 58.0916 23.6284 57.6496C23.6284 56.7135 24.2864 55.6174 24.9013 55.1805L25.1416 55.0092V53.6419H15.1479L15.1496 54.9834L15.3556 55.1552C15.3691 55.1665 16.722 56.3075 16.722 57.7552C16.722 58.3729 16.7338 58.9581 16.7455 59.5404L16.7467 59.5999C16.7579 60.1463 16.7685 60.6904 16.7685 61.2554L16.7612 64.5107C16.7551 64.7785 16.6929 65.0385 16.5764 65.2856L16.4207 65.618L16.2393 65.2991C15.8059 64.5376 14.5313 62.3549 12.0511 58.5318C10.2356 55.7331 8.54049 54.0962 6.86889 53.5273C6.53738 53.4144 6.22098 53.3454 5.92866 53.3207C5.77971 53.3049 5.63298 53.2965 5.48459 53.2965C3.21213 53.2965 1.36302 55.1502 1.36302 57.429C1.36302 59.7077 3.21213 61.5614 5.48459 61.5614C6.61298 61.5614 7.70329 61.0914 8.4744 60.2721L8.6396 60.0963L8.77176 60.2985C10.5413 62.9967 11.5393 64.5674 11.9761 65.2631L12.0405 65.3648L11.9761 65.467L4.65075 77.0883C4.15404 77.8851 3.6002 78.5921 3.00548 79.1885C2.48468 79.7107 1.81325 79.9646 0.951411 79.9646H0.380215V82.1737H12.4296V79.9646H11.649C11.5325 79.9646 11.4368 79.9528 11.3657 79.9292L11.2621 79.8944L11.2397 79.7871C11.2307 79.7472 11.2268 79.7001 11.2268 79.6462C11.2268 79.1677 11.4984 78.5073 12.0348 77.6841L16.764 69.9117V74.2233C16.764 75.6816 16.7685 77.4078 16.7685 77.4078C16.7685 78.1631 16.6442 78.8263 16.3989 79.3783C16.2746 79.6597 16.0433 79.982 15.3523 79.982H14.5195V82.1906V82.1906ZM26.2548 82.5724H14.1388V79.6007H15.3523C15.8434 79.6007 15.9632 79.4215 16.0511 79.2233C16.2746 78.7196 16.3877 78.1092 16.3877 77.4078C16.3877 77.4078 16.3838 75.6822 16.3838 74.2233V71.2701L12.3569 77.888C11.7812 78.7713 11.6289 79.2907 11.6098 79.5821C11.6216 79.5821 11.635 79.5827 11.649 79.5827H12.8099V82.555H0V79.5827H0.951432C1.70687 79.5827 2.29038 79.3654 2.73615 78.9184C3.31014 78.3422 3.84606 77.6588 4.32877 76.885L11.5902 65.3648C11.1361 64.6438 10.1902 63.1579 8.5825 60.7039C7.75315 61.4946 6.63707 61.9432 5.48461 61.9432C3.00216 61.9432 0.982808 59.9177 0.982808 57.429C0.982808 54.9396 3.00216 52.9146 5.48461 52.9146C5.64141 52.9146 5.80325 52.9236 5.96509 52.941C6.28317 52.9669 6.63036 53.0427 6.991 53.1651C8.74659 53.7631 10.5061 55.4506 12.3703 58.3241C14.5325 61.6569 15.7818 63.7486 16.3564 64.7387C16.3709 64.6617 16.3788 64.5837 16.3805 64.5051L16.3877 61.2548C16.3877 60.6927 16.3765 60.1513 16.3665 59.6078L16.3648 59.5477C16.353 58.9637 16.3413 58.3757 16.3413 57.7552C16.3413 56.4962 15.1244 55.459 15.1121 55.4489L14.7693 55.1631L14.7665 53.2594H25.5224V55.2063L25.1214 55.4916C24.5962 55.865 24.0093 56.8669 24.0093 57.6497C24.0093 58.0955 23.9964 58.5341 23.983 58.9861C23.9678 59.5196 23.9522 60.0553 23.9561 60.6394C23.9611 61.3632 23.9858 63.761 23.9858 63.761L23.979 64.5534C23.9824 64.6163 23.9902 64.6792 24.0031 64.7426C24.5766 63.7537 25.8265 61.6603 27.9914 58.3241C29.8556 55.4501 31.6151 53.7632 33.3702 53.1657C33.7353 53.0416 34.0786 52.9669 34.419 52.9388C34.554 52.9237 34.7147 52.9147 34.8777 52.9147C37.3596 52.9147 39.3789 54.9396 39.3789 57.429C39.3789 59.9178 37.3596 61.9433 34.8777 61.9433C33.7241 61.9433 32.6086 61.4946 31.7792 60.7039C30.1709 63.1579 29.2256 64.6438 28.7715 65.3648L36.0307 76.8806C36.5151 77.6577 37.051 78.3428 37.625 78.9184C38.0708 79.3654 38.6548 79.5827 39.4097 79.5827H40.3611V82.555H27.5518V79.5827H28.7121C28.7267 79.5827 28.7401 79.5822 28.7524 79.5822C28.7345 79.3272 28.6052 78.81 28.0205 77.9132L23.9785 71.2695V75.2975L24.0053 77.3955C24.0053 78.1132 24.1129 78.7342 24.3245 79.243C24.3654 79.3407 24.4729 79.6007 25.3029 79.6007H26.2548V82.5724L26.2548 82.5724ZM21.453 71.5117H18.9661C18.858 71.5117 18.7701 71.4242 18.7701 71.3152C18.7701 71.2074 18.858 71.1192 18.9661 71.1192H21.453C21.5611 71.1192 21.6485 71.2074 21.6485 71.3152C21.6485 71.4242 21.5611 71.5117 21.453 71.5117ZM21.453 73.2492H18.9661C18.858 73.2492 18.7701 73.1616 18.7701 73.0532C18.7701 72.9443 18.858 72.8567 18.9661 72.8567H21.453C21.5611 72.8567 21.6485 72.9443 21.6485 73.0532C21.6485 73.1616 21.5611 73.2492 21.453 73.2492ZM21.453 74.9866H18.9661C18.858 74.9866 18.7701 74.8985 18.7701 74.7901C18.7701 74.6823 18.858 74.5941 18.9661 74.5941H21.453C21.5611 74.5941 21.6485 74.6823 21.6485 74.7901C21.6485 74.8985 21.5611 74.9866 21.453 74.9866ZM21.453 76.7241H18.9661C18.858 76.7241 18.7701 76.6359 18.7701 76.5281C18.7701 76.4197 18.858 76.3315 18.9661 76.3315H21.453C21.5611 76.3315 21.6485 76.4197 21.6485 76.5281C21.6485 76.6359 21.5611 76.7241 21.453 76.7241ZM21.453 78.4615H18.9661C18.858 78.4615 18.7701 78.3739 18.7701 78.265C18.7701 78.1566 18.858 78.069 18.9661 78.069H21.453C21.5611 78.069 21.6485 78.1566 21.6485 78.265C21.6485 78.3739 21.5611 78.4615 21.453 78.4615ZM21.453 80.199H18.9661C18.858 80.199 18.7701 80.1108 18.7701 80.003C18.7701 79.8946 18.858 79.8064 18.9661 79.8064H21.453C21.5611 79.8064 21.6485 79.8946 21.6485 80.003C21.6485 80.1108 21.5611 80.199 21.453 80.199ZM19.5373 69.3818H20.8818C20.9899 69.3818 21.0778 69.47 21.0778 69.5783C21.0778 69.6867 20.9899 69.7743 20.8818 69.7743H19.5373C19.4292 69.7743 19.3413 69.6867 19.3413 69.5783C19.3413 69.47 19.4292 69.3818 19.5373 69.3818ZM23.4466 79.6105C23.1845 78.9815 23.0535 78.2476 23.0535 77.4081L23.0266 75.2977V69.3975C21.8999 69.2453 21.0308 68.28 21.0308 67.1081C21.0308 66.9368 21.0543 66.7711 21.0901 66.61C21.3651 67.6949 22.3423 68.4985 23.5099 68.4985C24.5548 68.4985 25.4491 67.8555 25.8227 66.943C25.7297 66.9531 25.6356 66.9598 25.5399 66.9598C24.1589 66.9598 23.0244 65.8373 23.0244 64.4531C23.0244 64.4531 23.0316 64.4536 23.0266 64.4542C23.0266 64.4542 23.012 61.7065 23.0048 60.6457C22.9964 59.5322 23.0574 58.6101 23.0574 57.6493C23.0574 56.5357 23.7977 55.2627 24.5705 54.7135V54.2143H15.7181V54.7135C15.7181 54.7135 17.2928 56.0056 17.2928 57.7554C17.2928 58.9751 17.3393 60.0673 17.3393 61.2561L17.3348 64.4693C17.3298 64.4688 17.3326 64.4688 17.3326 64.4688C17.3326 65.853 16.2025 66.975 14.8215 66.975C14.7258 66.975 14.6317 66.9688 14.5387 66.9581C14.9123 67.8712 15.8066 68.5142 16.8515 68.5142C18.0191 68.5142 18.9963 67.7106 19.2713 66.6257C19.3071 66.7869 19.3306 66.952 19.3306 67.1238C19.3306 68.2952 18.4615 69.2611 17.3348 69.4132V74.224C17.3348 75.6824 17.3393 77.4081 17.3393 77.4081C17.3393 78.2476 17.1998 78.9815 16.921 79.6104C16.6421 80.2399 16.1191 80.555 15.3524 80.555H15.0909V81.6186H25.303V80.555C24.3263 80.555 23.7076 80.2399 23.4466 79.6104L23.4466 79.6105ZM35.124 80.1991H32.637C32.5289 80.1991 32.441 80.1109 32.441 80.0025C32.441 79.8947 32.5289 79.8065 32.637 79.8065H35.124C35.232 79.8065 35.3194 79.8947 35.3194 80.0025C35.3194 80.1109 35.232 80.1991 35.124 80.1991ZM31.2913 78.2701C31.2913 78.1623 31.3787 78.0742 31.4868 78.0742H33.9737C34.0818 78.0742 34.1692 78.1623 34.1692 78.2701C34.1692 78.3785 34.0818 78.4667 33.9737 78.4667H31.4868C31.3787 78.4667 31.2913 78.3785 31.2913 78.2701ZM30.1411 76.5377C30.1411 76.4299 30.2285 76.3418 30.3365 76.3418H32.8235C32.931 76.3418 33.0189 76.4299 33.0189 76.5377C33.0189 76.6461 32.931 76.7343 32.8235 76.7343H30.3365C30.2285 76.7343 30.1411 76.6461 30.1411 76.5377ZM29.2658 75.0019C29.1578 75.0019 29.0698 74.9137 29.0698 74.8059C29.0698 74.6975 29.1578 74.6094 29.2658 74.6094H31.7522C31.8603 74.6094 31.9482 74.6975 31.9482 74.8059C31.9482 74.9137 31.8603 75.0019 31.7522 75.0019H29.2658ZM28.1946 73.2695C28.0865 73.2695 27.9991 73.1814 27.9991 73.073C27.9991 72.9652 28.0865 72.877 28.1946 72.877H30.6815C30.7896 72.877 30.8775 72.9652 30.8775 73.073C30.8775 73.1814 30.7896 73.2695 30.6815 73.2695H28.1946ZM26.8881 71.3406C26.8881 71.2322 26.976 71.1446 27.0841 71.1446H29.571C29.6791 71.1446 29.7665 71.2322 29.7665 71.3406C29.7665 71.4489 29.6791 71.5371 29.571 71.5371H27.0841C26.976 71.5371 26.8881 71.4489 26.8881 71.3406ZM26.7078 69.5779C26.7078 69.4701 26.7951 69.3819 26.9032 69.3819H28.2483C28.3564 69.3819 28.4438 69.4701 28.4438 69.5779C28.4438 69.6863 28.3564 69.7744 28.2483 69.7744H26.9032C26.7951 69.7744 26.7078 69.6863 26.7078 69.5779ZM36.9523 79.5931C36.3246 78.9642 35.7489 78.2297 35.2264 77.3907L27.6469 65.3674C27.6469 65.3674 28.7445 63.5788 31.722 59.0561C32.3117 60.2028 33.5016 60.989 34.877 60.989C36.8381 60.989 38.4274 59.3953 38.4274 57.4287C38.4274 55.4627 36.8381 53.869 34.877 53.869C34.7493 53.869 34.6228 53.8763 34.4984 53.8893C34.2588 53.91 33.9883 53.9634 33.6758 54.0695C32.1537 54.5878 30.5471 56.1349 28.7893 58.8444C25.7171 63.5799 24.4751 65.8368 24.4751 65.8368C24.7663 66.4068 26.5112 66.4995 26.5112 66.4995C26.5112 66.4995 26.1674 68.8467 23.933 69.3639L28.8167 77.3907C29.4097 78.2999 29.706 79.0518 29.706 79.6459C29.706 80.24 29.3745 80.5377 28.712 80.5377H28.5031V81.6007H39.4096V80.5377C38.3988 80.5377 37.5795 80.2226 36.9523 79.5932L36.9523 79.5931ZM9.87088 76.7341H7.3845C7.27642 76.7341 7.18851 76.6465 7.18851 76.5381C7.18851 76.4297 7.27642 76.3415 7.3845 76.3415H9.87088C9.97896 76.3415 10.0669 76.4297 10.0669 76.5381C10.0669 76.6465 9.97896 76.7341 9.87088 76.7341ZM8.72065 78.4664H6.23371C6.12619 78.4664 6.03827 78.3788 6.03827 78.2705C6.03827 78.1621 6.12619 78.0745 6.23371 78.0745H8.72065C8.82873 78.0745 8.91609 78.1621 8.91609 78.2705C8.91609 78.3788 8.82873 78.4664 8.72065 78.4664ZM7.57042 80.1988H5.08348C4.9754 80.1988 4.88804 80.1112 4.88804 80.0029C4.88804 79.8945 4.9754 79.8069 5.08348 79.8069H7.57042C7.6785 79.8069 7.76642 79.8945 7.76642 80.0029C7.76642 80.1112 7.6785 80.1988 7.57042 80.1988ZM8.45521 74.6092H10.9421C11.0497 74.6092 11.1376 74.6973 11.1376 74.8057C11.1376 74.9141 11.0497 75.0017 10.9421 75.0017H8.45521C8.34713 75.0017 8.25977 74.9141 8.25977 74.8057C8.25977 74.6973 8.34713 74.6092 8.45521 74.6092ZM9.52592 72.8768H12.0129C12.1209 72.8768 12.2083 72.9649 12.2083 73.0727C12.2083 73.1811 12.1209 73.2693 12.0129 73.2693H9.52592C9.41784 73.2693 9.33048 73.1811 9.33048 73.0727C9.33048 72.9649 9.41784 72.8768 9.52592 72.8768ZM10.6364 71.1444H13.1233C13.2314 71.1444 13.3193 71.2325 13.3193 71.3409C13.3193 71.4487 13.2314 71.5369 13.1233 71.5369H10.6364C10.5283 71.5369 10.441 71.4487 10.441 71.3409C10.441 71.2325 10.5283 71.1444 10.6364 71.1444ZM11.9591 69.3817H13.3042C13.4123 69.3817 13.4997 69.4698 13.4997 69.5782C13.4997 69.6866 13.4123 69.7742 13.3042 69.7742H11.9591C11.8516 69.7742 11.7637 69.6866 11.7637 69.5782C11.7637 69.4698 11.8516 69.3817 11.9591 69.3817ZM10.6554 79.6463C10.6554 79.0516 10.9522 78.2997 11.5447 77.3905L16.4284 69.3637C14.194 68.8465 13.8502 66.4998 13.8502 66.4998C13.8502 66.4998 15.5957 66.4071 15.8864 65.8372C15.8864 65.8372 14.6443 63.5797 11.5722 58.8442C9.81433 56.1347 8.2077 54.5876 6.6862 54.0699C6.37316 53.9637 6.10268 53.9098 5.863 53.8896C5.73868 53.8767 5.61268 53.8688 5.48444 53.8688C3.5239 53.8688 1.93407 55.4631 1.93407 57.4291C1.93407 59.395 3.52389 60.9887 5.48444 60.9887C6.8598 60.9887 8.05035 60.2031 8.63946 59.0559C11.617 63.5792 12.7146 65.3671 12.7146 65.3671L5.13501 77.3905C4.61253 78.23 4.03686 78.9645 3.4091 79.5935C2.78191 80.223 1.96263 80.5374 0.951843 80.5374V81.601H11.8583V80.5374H11.6494C10.987 80.5374 10.6554 80.2404 10.6554 79.6463H10.6554ZM123.536 71.537H121.049C120.941 71.537 120.853 71.4488 120.853 71.3404C120.853 71.2326 120.941 71.1444 121.049 71.1444H123.536C123.644 71.1444 123.732 71.2326 123.732 71.3404C123.732 71.4488 123.644 71.537 123.536 71.537ZM123.536 73.2693H121.049C120.941 73.2693 120.853 73.1812 120.853 73.0728C120.853 72.965 120.941 72.8768 121.049 72.8768H123.536C123.644 72.8768 123.732 72.965 123.732 73.0728C123.732 73.1812 123.644 73.2693 123.536 73.2693ZM123.536 75.0017H121.049C120.941 75.0017 120.853 74.9141 120.853 74.8057C120.853 74.6974 120.941 74.6092 121.049 74.6092H123.536C123.644 74.6092 123.732 74.6974 123.732 74.8057C123.732 74.9141 123.644 75.0017 123.536 75.0017ZM123.536 76.7341H121.049C120.941 76.7341 120.853 76.6465 120.853 76.5381C120.853 76.4298 120.941 76.3416 121.049 76.3416H123.536C123.644 76.3416 123.732 76.4298 123.732 76.5381C123.732 76.6465 123.644 76.7341 123.536 76.7341ZM123.536 78.4665H121.049C120.941 78.4665 120.853 78.3789 120.853 78.2705C120.853 78.1622 120.941 78.0745 121.049 78.0745H123.536C123.644 78.0745 123.732 78.1622 123.732 78.2705C123.732 78.3789 123.644 78.4665 123.536 78.4665ZM123.536 80.1989H121.049C120.941 80.1989 120.853 80.1113 120.853 80.0029C120.853 79.8945 120.941 79.8069 121.049 79.8069H123.536C123.644 79.8069 123.732 79.8945 123.732 80.0029C123.732 80.1113 123.644 80.1989 123.536 80.1989ZM121.429 69.4121H123.155C123.263 69.4121 123.351 69.5002 123.351 69.608C123.351 69.7164 123.263 69.8046 123.155 69.8046H121.429C121.321 69.8046 121.234 69.7164 121.234 69.608C121.234 69.5002 121.321 69.4121 121.429 69.4121ZM125.501 79.5728C125.24 78.9433 125.109 78.2088 125.109 77.3698L125.082 75.2589V69.3598C123.955 69.2071 123.086 68.2412 123.086 67.0704C123.086 66.8986 123.109 66.7329 123.145 66.5717C123.42 67.6567 124.398 68.4602 125.565 68.4602C126.61 68.4602 127.504 67.8167 127.878 66.9042C127.785 66.9148 127.691 66.9216 127.595 66.9216C126.214 66.9216 125.095 65.799 125.095 64.4142L125.082 62.6852C125.082 62.6852 125.082 61.9968 125.095 61.2555C125.095 60.0673 125.179 58.8757 125.319 57.6521C125.458 56.4284 125.893 55.4828 126.626 54.7135V54.2288L116.554 54.2283V54.7152C117.111 55.0998 117.573 55.5547 117.94 56.0786C118.305 56.6031 118.584 57.1798 118.776 57.8093C118.968 58.4388 119.107 59.1025 119.194 59.8022C119.281 60.5014 119.325 61.1831 119.325 61.8474C119.36 62.756 119.334 63.2923 119.247 64.2188C119.16 65.1454 118.968 65.7474 118.671 66.5167C118.375 67.286 117.965 67.915 117.443 68.4047C116.92 68.8938 116.222 69.1386 115.351 69.1386H115.35L115.331 69.1257C114.705 69.1257 114.166 68.9864 113.713 68.7079C113.268 68.4294 112.919 68.0436 112.605 67.5921C110.549 64.6344 110.854 61.6801 110.991 58.9498C111.034 58.0738 111.199 57.2803 111.409 56.5638C111.564 56.0326 111.78 55.4559 112.467 54.7135C112.467 54.7135 112.454 54.2019 112.467 54.2154H102.437V54.7135C103.831 55.5873 104.616 56.8176 104.79 58.4253C104.79 58.4253 104.924 63.513 104.948 63.9319C105.102 66.7458 107.375 71.811 114.043 71.811C115.507 71.811 116.667 71.619 117.521 71.2343C118.375 70.8496 119.029 70.4302 119.482 69.9759V77.3698C119.482 78.2088 119.342 78.9433 119.064 79.5728C118.785 80.2017 118.262 80.5168 117.495 80.5168H117.233V81.5798H127.358V80.5168C126.382 80.5168 125.763 80.2017 125.501 79.5728L125.501 79.5728ZM94.8717 71.537H92.3848C92.2767 71.537 92.1893 71.4488 92.1893 71.3404C92.1893 71.2326 92.2767 71.1445 92.3848 71.1445H94.8717C94.9798 71.1445 95.0677 71.2326 95.0677 71.3404C95.0677 71.4488 94.9798 71.537 94.8717 71.537ZM94.8717 73.2694H92.3848C92.2767 73.2694 92.1893 73.1812 92.1893 73.0728C92.1893 72.965 92.2767 72.8769 92.3848 72.8769H94.8717C94.9798 72.8769 95.0677 72.965 95.0677 73.0728C95.0677 73.1812 94.9798 73.2694 94.8717 73.2694ZM94.8717 75.0018H92.3848C92.2767 75.0018 92.1893 74.9142 92.1893 74.8058C92.1893 74.6974 92.2767 74.6092 92.3848 74.6092H94.8717C94.9798 74.6092 95.0677 74.6974 95.0677 74.8058C95.0677 74.9142 94.9798 75.0018 94.8717 75.0018ZM94.8717 76.7342H92.3848C92.2767 76.7342 92.1893 76.6466 92.1893 76.5382C92.1893 76.4298 92.2767 76.3416 92.3848 76.3416H94.8717C94.9798 76.3416 95.0677 76.4298 95.0677 76.5382C95.0677 76.6466 94.9798 76.7342 94.8717 76.7342ZM94.8717 78.4666H92.3848C92.2767 78.4666 92.1893 78.3789 92.1893 78.2706C92.1893 78.1622 92.2767 78.0746 92.3848 78.0746H94.8717C94.9798 78.0746 95.0677 78.1622 95.0677 78.2706C95.0677 78.3789 94.9798 78.4666 94.8717 78.4666ZM94.8717 80.1989H92.3848C92.2767 80.1989 92.1893 80.1113 92.1893 80.0029C92.1893 79.8946 92.2767 79.807 92.3848 79.807H94.8717C94.9798 79.807 95.0677 79.8946 95.0677 80.0029C95.0677 80.1113 94.9798 80.1989 94.8717 80.1989ZM92.7656 69.4121H94.4909C94.599 69.4121 94.6863 69.5003 94.6863 69.6081C94.6863 69.7165 94.599 69.8046 94.4909 69.8046H92.7656C92.6575 69.8046 92.5701 69.7165 92.5701 69.6081C92.5701 69.5003 92.6575 69.4121 92.7656 69.4121ZM82.6022 78.4615H80.1153C80.0072 78.4615 79.9198 78.3739 79.9198 78.265C79.9198 78.1571 80.0072 78.069 80.1153 78.069H82.6022C82.7103 78.069 82.7976 78.1571 82.7976 78.265C82.7976 78.3739 82.7103 78.4615 82.6022 78.4615ZM81.989 80.1989H80.6445C80.5364 80.1989 80.4484 80.1113 80.4484 80.0029C80.4484 79.8946 80.5364 79.807 80.6445 79.807H81.989C82.0971 79.807 82.185 79.8946 82.185 80.0029C82.185 80.1113 82.0971 80.1989 81.989 80.1989ZM79.3906 76.5281C79.3906 76.4197 79.4785 76.3315 79.5866 76.3315H82.0736C82.1811 76.3315 82.269 76.4197 82.269 76.5281C82.269 76.6365 82.1811 76.7241 82.0736 76.7241H79.5866C79.4785 76.7241 79.3906 76.6365 79.3906 76.5281ZM78.862 74.7901C78.862 74.6823 78.9493 74.5941 79.0574 74.5941H81.5444C81.6524 74.5941 81.7404 74.6823 81.7404 74.7901C81.7404 74.8985 81.6524 74.9866 81.5444 74.9866H79.0574C78.9493 74.9866 78.862 74.8985 78.862 74.7901ZM78.3333 73.0532C78.3333 72.9443 78.4207 72.8567 78.5288 72.8567H81.0157C81.1238 72.8567 81.2112 72.9443 81.2112 73.0532C81.2112 73.1616 81.1238 73.2492 81.0157 73.2492H78.5288C78.4207 73.2492 78.3333 73.1616 78.3333 73.0532ZM77.8041 71.3152C77.8041 71.2074 77.8921 71.1192 78.0002 71.1192H80.4871C80.5946 71.1192 80.6825 71.2074 80.6825 71.3152C80.6825 71.4242 80.5946 71.5118 80.4871 71.5118H78.0002C77.8921 71.5118 77.8041 71.4242 77.8041 71.3152ZM77.6877 69.5783C77.6877 69.47 77.7756 69.3818 77.8837 69.3818H79.2282C79.3363 69.3818 79.4242 69.47 79.4242 69.5783C79.4242 69.6867 79.3363 69.7743 79.2282 69.7743H77.8837C77.7756 69.7743 77.6877 69.6867 77.6877 69.5783ZM96.9599 79.6228C96.6978 78.9933 96.5668 78.2594 96.5668 77.4204L96.5399 75.3095V69.4099C95.4132 69.2571 94.544 68.2918 94.544 67.1204C94.544 66.9486 94.5681 66.7835 94.6034 66.6223C94.8784 67.7073 95.8561 68.5103 97.0231 68.5103C98.0681 68.5103 98.9624 67.8673 99.3359 66.9542C99.243 66.9649 99.1489 66.9716 99.0531 66.9716C97.6722 66.9716 96.5533 65.8497 96.5533 64.4649L96.5399 62.7359C96.5399 62.7359 96.5589 61.9261 96.5667 61.3207C96.5667 60.1319 96.6367 58.9257 96.7762 57.7021C96.9156 56.4785 97.3513 55.4823 98.0838 54.7135V54.2261H89.2314L89.2319 54.2267H88.5123L82.8082 72.823L82.405 72.8263L81.2929 69.1347C80.1158 68.982 79.1313 68.2576 78.7438 67.0862C78.6866 66.9143 78.6558 66.7492 78.6379 66.5881C79.2724 67.673 79.9181 68.1295 81.0857 68.1295C82.1306 68.1295 83.0501 67.1064 83.1218 66.1933C83.0322 66.204 82.9398 66.2107 82.844 66.2107C81.4637 66.2107 80.3325 65.8154 79.8738 64.4306C79.8738 64.4306 79.866 64.4311 79.861 64.4317L79.2881 62.7016C79.2881 62.7016 78.975 61.5571 78.8748 61.3263L76.7328 54.1683L71.0993 54.1907H66.7985L66.8035 54.7135C67.7953 55.5547 68.4516 56.3903 68.591 57.6139C68.7305 58.8376 68.8005 60.0432 68.8005 61.232V77.3844C68.8005 78.2233 68.661 78.9573 68.3822 79.5868C68.1033 80.2163 66.8186 80.5308 66.052 80.5308H65.7899V81.5944H74.7706V80.5308C73.7945 80.5308 72.4141 80.2163 72.1526 79.5868C71.8911 78.9573 71.76 78.2233 71.76 77.3844V68.207V65.4801V64.5361V61.2847C71.76 60.9545 71.7656 60.6226 71.7763 60.2896C71.8048 59.4243 71.8687 58.55 71.97 57.6661C71.9751 57.6172 71.984 57.5712 71.9908 57.5229L74.1658 64.4468C74.1641 64.4468 74.1607 64.4462 74.1607 64.4462C74.8893 66.8564 72.2988 66.9468 72.2024 66.9362C72.5956 67.8509 73.4725 68.4872 74.6625 68.4872C75.4963 68.4872 76.7882 68.0497 76.9036 66.9154C76.9921 67.076 77.3578 68.6961 75.689 69.3609L79.4522 81.6073H82.9208L90.5227 57.0843C90.5804 57.2859 90.6241 57.478 90.6437 57.6498C90.7825 58.8734 90.8525 60.0797 90.8525 61.2679L90.8481 61.9878L90.8352 64.4805C90.8352 64.5372 90.8335 64.5934 90.8296 64.649C90.7428 65.9552 89.6592 66.9873 88.3354 66.9873C88.239 66.9873 88.145 66.9806 88.052 66.9699C88.4261 67.883 89.3198 68.5259 90.3648 68.5259C91.5324 68.5259 92.5096 67.7229 92.7851 66.6374C92.8204 66.7986 92.8439 66.9637 92.8439 67.1361C92.8439 68.3075 91.9748 69.2728 90.8481 69.4255V74.2358C90.8481 75.6941 90.8525 77.4203 90.8525 77.4203C90.8525 78.2593 90.7131 78.9932 90.4342 79.6227C90.1553 80.2522 89.6323 80.5667 88.8657 80.5667H88.6042V81.6303H98.8157V80.5667C97.8396 80.5667 97.2208 80.2522 96.9599 79.6227V79.6228ZM48.6993 65.5041C48.7004 65.1273 48.7088 64.7561 48.7228 64.3917C48.7228 64.3917 48.7222 64.445 48.7245 64.34C48.8908 60.1913 49.9145 56.9494 52.5425 56.9494C55.4265 56.9494 56.3466 60.8135 56.3628 65.5041H48.6993H48.6993ZM49.033 78.0744C49.1411 78.0744 49.2285 78.162 49.2285 78.2704C49.2285 78.3788 49.1411 78.4664 49.033 78.4664H46.5461C46.438 78.4664 46.3506 78.3788 46.3506 78.2704C46.3506 78.162 46.438 78.0744 46.5461 78.0744H49.033ZM51.2137 79.8068C51.3223 79.8068 51.4097 79.8944 51.4097 80.0028C51.4097 80.1112 51.3223 80.1988 51.2137 80.1988H48.7267C48.6186 80.1988 48.5313 80.1112 48.5313 80.0028C48.5313 79.8944 48.6186 79.8068 48.7267 79.8068H51.2137ZM45.3589 76.538C45.3589 76.4297 45.4463 76.3415 45.5543 76.3415H48.0413C48.1494 76.3415 48.2367 76.4297 48.2367 76.538C48.2367 76.6464 48.1494 76.734 48.0413 76.734H45.5543C45.4463 76.734 45.3589 76.6464 45.3589 76.538ZM44.8404 75.0016C44.7328 75.0016 44.6449 74.914 44.6449 74.8056C44.6449 74.6973 44.7328 74.6091 44.8404 74.6091H47.3273C47.4354 74.6091 47.5227 74.6973 47.5227 74.8056C47.5227 74.914 47.4354 75.0016 47.3273 75.0016H44.8404ZM44.3274 73.0733C44.3274 72.9649 44.4153 72.8767 44.5228 72.8767H47.0098C47.1179 72.8767 47.2058 72.9649 47.2058 73.0733C47.2058 73.1811 47.1179 73.2692 47.0098 73.2692H44.5228C44.4153 73.2692 44.3274 73.1811 44.3274 73.0733ZM44.1689 71.3409C44.1689 71.2325 44.2563 71.1443 44.3644 71.1443H46.8513C46.9594 71.1443 47.0467 71.2325 47.0467 71.3409C47.0467 71.4487 46.9594 71.5368 46.8513 71.5368H44.3644C44.2563 71.5368 44.1689 71.4487 44.1689 71.3409ZM44.7452 69.4119H46.4711C46.5786 69.4119 46.6665 69.5001 46.6665 69.6085C46.6665 69.7163 46.5786 69.8045 46.4711 69.8045H44.7452C44.6371 69.8045 44.5497 69.7163 44.5497 69.6085C44.5497 69.5001 44.6371 69.4119 44.7452 69.4119ZM62.2775 68.021C62.2775 68.021 62.483 64.591 61.6368 61.4216C61.0494 59.2215 59.4422 54.7762 53.4978 54.2562C53.4038 54.2473 53.3108 54.2349 53.2156 54.2287C53.1854 54.227 53.1534 54.2276 53.1226 54.2265C52.9154 54.2152 52.7043 54.2096 52.4876 54.2096C45.4272 54.2096 43.4868 59.4146 42.9817 60.8831C42.775 61.4817 42.6093 62.059 42.4844 62.6649C42.3522 63.2905 42.2218 64.194 42.2218 64.194C42.2167 64.1935 42.191 64.4804 42.191 64.4804C42.191 65.8646 41.0715 66.9872 39.6912 66.9872C39.5954 66.9872 39.5013 66.9804 39.4084 66.9698C39.7819 67.8828 40.6756 68.5258 41.7206 68.5258C42.8882 68.5258 43.8659 67.7228 44.1409 66.6379C44.1762 66.7985 44.2002 66.9641 44.2002 67.136C44.2002 68.3074 43.3311 69.2727 42.2044 69.4249V70.2234C42.2044 72.1815 42.476 73.5118 42.9817 74.9803C43.4868 76.4487 45.4138 81.7543 52.8785 81.7543C58.9528 81.7543 61.3328 76.9805 61.7544 75.7564C62.0809 74.8096 62.2651 73.7191 62.2775 72.7178H59.627C59.5872 73.3608 59.5665 73.719 59.3297 74.6141C58.3676 78.2536 55.7798 78.905 53.7387 78.905C50.5775 78.905 49.5359 75.9046 49.2217 74.7686C48.9081 73.6326 48.9009 73.0907 48.8488 71.9019C48.7967 70.7131 48.7704 69.7517 48.7704 69.0172V68.021H62.2775H62.2775ZM36.2382 43.975C36.4762 43.975 36.6991 43.9312 36.9074 43.8436C37.1152 43.756 37.2961 43.6358 37.4484 43.483C37.5637 43.3674 37.6517 43.2393 37.7133 43.1001C37.7743 42.9597 37.8202 42.798 37.8499 42.6132C37.8796 42.429 37.8981 42.2218 37.9059 41.9927C37.9132 41.7636 37.9165 41.5053 37.9165 41.2183V40.8157C37.9165 40.5023 37.9093 40.2311 37.8947 40.002C37.8796 39.7723 37.8555 39.5741 37.8219 39.4062C37.7883 39.2383 37.7413 39.0934 37.6797 38.9704C37.6181 38.8474 37.5413 38.7374 37.4484 38.6402C37.1286 38.3196 36.7254 38.1595 36.2382 38.1595C35.9963 38.1595 35.7723 38.2017 35.5662 38.2853C35.3602 38.3696 35.1804 38.4875 35.0281 38.6402C34.8237 38.8525 34.6926 39.1344 34.635 39.4848C34.5773 39.8352 34.5482 40.3125 34.5482 40.9162V41.3525C34.5482 41.6732 34.556 41.9461 34.5706 42.1718C34.5857 42.397 34.6109 42.5919 34.6462 42.7558C34.6814 42.9198 34.7318 43.0591 34.7968 43.1725C34.8618 43.2865 34.939 43.3898 35.0281 43.4831C35.1804 43.6358 35.3602 43.756 35.5662 43.8436C35.7723 43.9312 35.9963 43.975 36.2382 43.975V43.975ZM36.2382 45.211C35.3792 45.211 34.6675 44.9223 34.1024 44.3439C33.935 44.176 33.8 43.9969 33.6981 43.8048C33.5956 43.6128 33.5161 43.4039 33.4584 43.1787C33.4007 42.953 33.3627 42.7104 33.3442 42.4515C33.3251 42.1926 33.3123 41.9023 33.305 41.5816H31.844V45.1441H30.6114V36.9904H31.844V40.4686H33.3162C33.3235 40.1632 33.3386 39.8829 33.3604 39.6269C33.3828 39.3719 33.4209 39.1361 33.4752 38.9199C33.529 38.7037 33.6051 38.5032 33.7037 38.3185C33.8023 38.1343 33.935 37.9579 34.1024 37.79C34.3774 37.4997 34.6966 37.283 35.0589 37.1392C35.4212 36.9955 35.8143 36.9236 36.2382 36.9236C36.6582 36.9236 37.0486 36.9955 37.4092 37.1392C37.7698 37.283 38.0913 37.4997 38.3741 37.79C38.6938 38.1113 38.9055 38.4813 39.0097 38.9002C39.1138 39.3197 39.1659 39.8015 39.1659 40.3457V41.0673C39.1659 41.4699 39.1592 41.8298 39.1463 42.1466C39.1334 42.4633 39.1026 42.7525 39.0545 43.013C39.0057 43.2742 38.9279 43.5106 38.8198 43.7234C38.7123 43.9357 38.5633 44.1429 38.3741 44.3439C37.813 44.9223 37.1006 45.211 36.2383 45.211H36.2382ZM52.0586 43.975C52.5083 43.9677 52.8426 43.8424 53.0621 43.6004C53.2743 43.3618 53.3802 43.0782 53.3802 42.7502C53.3802 42.415 53.2743 42.1275 53.0621 41.8894C52.8504 41.6619 52.5155 41.5407 52.0586 41.5261H50.1624V43.975H52.0586V43.975ZM51.9415 40.4243C52.3912 40.4243 52.7222 40.3069 52.9338 40.0716C53.1494 39.856 53.2575 39.5836 53.2575 39.2557C53.2575 38.9199 53.1494 38.6419 52.9338 38.4224C52.7294 38.2174 52.3985 38.1051 51.9415 38.0865H50.1624V40.4243H51.9415V40.4243ZM48.9304 36.9904H52.081C52.8952 37.0056 53.4955 37.2072 53.8819 37.5946C54.2868 38.0012 54.4895 38.5285 54.4895 39.1771C54.4974 39.5129 54.4173 39.8335 54.2504 40.139C54.172 40.2845 54.0494 40.422 53.8819 40.5529C53.715 40.6983 53.5174 40.823 53.2911 40.9274V40.9499C53.7335 41.065 54.0678 41.2981 54.2946 41.6485C54.5102 42.0028 54.6183 42.3959 54.6183 42.8283C54.5998 43.533 54.3786 44.0907 53.9547 44.5006C53.5269 44.9296 52.9932 45.1441 52.3543 45.1441H48.9304V36.9904H48.9304ZM64.2204 36.9907H69.4122V38.1593H65.453V40.4802H68.832V41.5819H65.453V43.9753H69.4122V45.1439H64.2204V36.9907V36.9907ZM78.1785 43.975H78.379C78.5577 43.975 78.7201 43.9542 78.8668 43.9138C79.0141 43.8722 79.1507 43.7739 79.2767 43.6173C79.4033 43.4606 79.5119 43.2315 79.6032 42.9294C79.6944 42.6273 79.7723 42.2184 79.8372 41.7024C79.9022 41.1858 79.952 40.5445 79.9851 39.7785C80.0187 39.012 80.0355 38.0832 80.0355 36.9904H84.7417V45.1441H83.5097V38.1596H81.2344C81.2344 39.1732 81.212 40.0486 81.1672 40.7848C81.123 41.521 81.0547 42.1494 80.964 42.6688C80.8727 43.1894 80.7568 43.61 80.6156 43.9301C80.474 44.2507 80.3037 44.5006 80.1049 44.6797C79.9061 44.8583 79.681 44.9807 79.4301 45.0459C79.1793 45.111 78.9015 45.1441 78.5969 45.1441H78.1785V43.975V43.975ZM94.7851 36.9907H96.0176V42.9016L99.5361 36.9907H100.663V45.1439H99.4302V39.2217L95.9006 45.1439H94.7851V36.9907V36.9907ZM113.762 40.7932C114.219 40.7786 114.563 40.6365 114.793 40.3681C115.013 40.0997 115.123 39.8015 115.123 39.4735C115.123 39.2012 115.078 38.9721 114.989 38.7856C114.903 38.6256 114.773 38.4931 114.598 38.3886C114.338 38.2286 114.044 38.1516 113.717 38.1595H111.938V40.7932H113.762H113.762ZM110.706 36.9909H113.65C113.81 36.9909 113.966 36.9982 114.118 37.0134C114.271 37.028 114.424 37.0504 114.576 37.0802C114.866 37.1582 115.167 37.3189 115.479 37.5609C115.728 37.7361 115.937 37.9955 116.104 38.3381C116.271 38.6699 116.355 39.0597 116.355 39.5067C116.355 40.1109 116.143 40.6607 115.719 41.1565C115.277 41.686 114.641 41.9545 113.812 41.9618H111.938V45.1441H110.706V36.9909L110.706 36.9909ZM125.801 36.9907H127.034V40.4802H130.251V36.9907H131.489V45.1439H130.251V41.5819H127.034V45.1439H125.801V36.9907ZM148.213 36.9909H149.446V45.144H148.213V36.9909ZM144.577 43.9749C145.019 43.9749 145.364 43.8569 145.611 43.6194C145.859 43.383 145.983 43.0595 145.983 42.6496C145.983 42.2357 145.859 41.9084 145.611 41.6686C145.364 41.4277 145.019 41.3075 144.577 41.3075H142.765V43.9749H144.577V43.9749ZM141.532 36.9909H142.765V40.1951H144.65C145.036 40.1951 145.388 40.2563 145.704 40.3793C146.02 40.5022 146.292 40.673 146.521 40.8908C146.749 41.1093 146.925 41.3687 147.048 41.6686C147.17 41.9684 147.231 42.3031 147.231 42.6721C147.231 43.0376 147.169 43.3729 147.042 43.6784C146.916 43.9844 146.74 44.2461 146.515 44.4645C146.29 44.6819 146.02 44.8498 145.704 44.9677C145.388 45.0851 145.036 45.144 144.65 45.144H141.532V36.9909H141.532ZM161.251 34.5525C161.329 34.858 161.462 35.0748 161.652 35.2011C161.849 35.332 162.1 35.3971 162.405 35.3971C162.688 35.4044 162.931 35.3432 163.136 35.2124C163.348 35.0933 163.489 34.8732 163.56 34.5525H164.246C164.204 35.0332 164.028 35.414 163.716 35.6936C163.403 35.9991 162.967 36.1518 162.405 36.1518C161.855 36.1518 161.425 35.9991 161.117 35.6936C160.797 35.414 160.613 35.0332 160.565 34.5525H161.251V34.5525ZM159.489 36.9908H160.721V42.9017L164.24 36.9908H165.366V45.144H164.134V39.2218L160.604 45.144H159.489V36.9908V36.9908ZM189.099 45.2107C188.78 45.2107 188.486 45.1703 188.218 45.0906C187.951 45.0108 187.711 44.894 187.499 44.7413C187.056 44.4504 186.741 44.1185 186.551 43.7456L186.389 43.3935C186.367 43.3301 186.346 43.2616 186.328 43.1891C186.309 43.1167 186.293 43.0392 186.277 42.9572C186.222 42.6439 186.194 42.0144 186.194 41.067C186.194 40.5864 186.2 40.1893 186.213 39.876C186.227 39.5626 186.248 39.3262 186.277 39.1656C186.337 38.8377 186.428 38.5788 186.551 38.389C186.741 38.0195 187.056 37.682 187.499 37.3765C187.934 37.0744 188.468 36.9234 189.099 36.9234C189.876 36.9234 190.516 37.1547 191.017 37.6169C191.52 38.0976 191.832 38.672 191.955 39.3392H190.649C190.553 39.0112 190.371 38.7316 190.103 38.5002C189.828 38.2806 189.494 38.1672 189.099 38.1593C188.809 38.1745 188.562 38.2301 188.357 38.3272C188.134 38.4429 187.961 38.5844 187.839 38.7523C187.686 38.9197 187.581 39.1454 187.521 39.429C187.462 39.7345 187.432 40.2809 187.432 41.0671C187.432 41.4697 187.439 41.8055 187.454 42.0739C187.469 42.3423 187.492 42.549 187.521 42.6944C187.581 42.9853 187.686 43.2144 187.839 43.3823C187.961 43.5575 188.134 43.6934 188.357 43.7906C188.554 43.9136 188.802 43.9748 189.099 43.9748C189.791 43.9748 190.308 43.6041 190.649 42.8623H191.955C191.78 43.6193 191.439 44.2005 190.934 44.6071C190.417 45.0097 189.805 45.2107 189.099 45.2107V45.2107ZM204.964 42.2248L203.788 38.6629H203.765L202.589 42.2248H204.964V42.2248ZM203.258 36.9906H204.29L207.245 45.1437H205.946L205.316 43.3209H202.232L201.607 45.1437H200.303L203.258 36.9906V36.9906ZM215.721 43.975H215.922C216.101 43.975 216.263 43.9542 216.41 43.9138C216.557 43.8722 216.693 43.7739 216.82 43.6173C216.946 43.4606 217.055 43.2315 217.146 42.9294C217.237 42.6273 217.315 42.2185 217.38 41.7024C217.445 41.1858 217.495 40.5445 217.528 39.7785C217.561 39.012 217.578 38.0832 217.578 36.9904H222.285V45.1441H221.053V38.1596H218.777C218.777 39.1732 218.755 40.0486 218.71 40.7848C218.666 41.521 218.598 42.1494 218.507 42.6688C218.416 43.1894 218.299 43.61 218.159 43.9301C218.017 44.2507 217.847 44.5006 217.648 44.6797C217.449 44.8583 217.225 44.9807 216.973 45.0459C216.722 45.111 216.445 45.1441 216.139 45.1441H215.721V43.975V43.975ZM234.954 43.975C235.252 43.975 235.506 43.9138 235.718 43.7902C235.915 43.6936 236.079 43.5572 236.209 43.382C236.376 43.2068 236.486 42.9777 236.538 42.6946C236.594 42.4262 236.622 41.8838 236.622 41.0673C236.622 40.6607 236.616 40.3227 236.605 40.052C236.594 39.7824 236.572 39.5741 236.538 39.4287C236.486 39.1529 236.376 38.9272 236.209 38.752C236.086 38.5841 235.923 38.4426 235.718 38.3269C235.495 38.2224 235.241 38.1669 234.954 38.1596C234.664 38.1742 234.417 38.2303 234.213 38.3269C233.99 38.4426 233.817 38.5841 233.694 38.752C233.542 38.9199 233.436 39.1456 233.376 39.4287C233.316 39.7347 233.287 40.2805 233.287 41.0673C233.287 41.4699 233.295 41.8051 233.309 42.0736C233.324 42.342 233.347 42.5492 233.376 42.6946C233.436 42.985 233.542 43.2146 233.694 43.382C233.817 43.5572 233.99 43.6936 234.213 43.7902C234.41 43.9138 234.657 43.975 234.954 43.975V43.975ZM234.954 45.211C234.635 45.211 234.341 45.1705 234.074 45.0908C233.805 45.0105 233.566 44.8942 233.354 44.7409C232.912 44.4506 232.596 44.1187 232.406 43.7459L232.244 43.3932C232.222 43.3303 232.201 43.2618 232.183 43.1894C232.164 43.1164 232.147 43.0394 232.133 42.9574C232.077 42.6441 232.049 42.014 232.049 41.0673C232.049 40.586 232.055 40.189 232.069 39.8762C232.081 39.5629 232.103 39.3265 232.133 39.1658C232.192 38.8379 232.283 38.579 232.406 38.3887C232.596 38.0197 232.912 37.6822 233.354 37.3767C233.789 37.0746 234.322 36.9236 234.954 36.9236C235.594 36.9236 236.133 37.0746 236.572 37.3767C236.999 37.6749 237.307 38.0119 237.497 38.3887C237.627 38.5712 237.724 38.8306 237.787 39.1658C237.832 39.4865 237.854 40.1205 237.854 41.0673C237.854 41.9989 237.832 42.6295 237.787 42.9574C237.724 43.2927 237.627 43.5555 237.497 43.7459C237.3 44.1294 236.992 44.4613 236.572 44.7409C236.352 44.8942 236.11 45.0105 235.844 45.0908C235.578 45.1705 235.281 45.211 234.954 45.211V45.211ZM247.618 36.9907H248.851V40.4802H252.069V36.9907H253.306V45.1438H252.069V41.5819H248.851V45.1438H247.618V36.9907ZM118.128 12.5316C118.128 16.3047 115.078 19.364 111.316 19.364C107.554 19.364 104.504 16.3047 104.504 12.5316C104.504 8.75855 107.554 5.69922 111.316 5.69922C115.078 5.69922 118.128 8.75855 118.128 12.5316ZM179.342 12.5316C179.342 16.3047 176.293 19.364 172.531 19.364C168.769 19.364 165.719 16.3047 165.719 12.5316C165.719 8.75855 168.769 5.69922 172.531 5.69922C176.293 5.69922 179.342 8.75855 179.342 12.5316ZM92.1261 12.5524C92.1261 15.0968 90.0692 17.1589 87.5319 17.1589C84.9951 17.1589 82.9382 15.0968 82.9382 12.5524C82.9382 10.0081 84.9951 7.94604 87.5319 7.94604C90.0692 7.94604 92.1261 10.0081 92.1261 12.5524ZM200.979 12.5524C200.979 15.0968 198.922 17.1589 196.386 17.1589C193.848 17.1589 191.791 15.0968 191.791 12.5524C191.791 10.0081 193.848 7.94604 196.386 7.94604C198.922 7.94604 200.979 10.0081 200.979 12.5524ZM148.311 21.8907C149.463 21.0961 150.461 20.0943 151.252 18.9381C150.435 17.6712 149.372 16.5784 148.128 15.7327C146.943 16.5374 145.92 17.5645 145.119 18.7539C145.96 20.0033 147.049 21.0703 148.311 21.8907V21.8907ZM147.773 15.5042C146.444 14.6737 144.929 14.1166 143.307 13.91C143.51 15.5401 144.063 17.0619 144.891 18.3973C145.673 17.2708 146.65 16.2904 147.773 15.5042V15.5042ZM140.93 1.19033C140.743 3.04737 140.122 4.77752 139.161 6.27181C140.088 7.71275 140.702 9.37158 140.912 11.1545C141.236 11.1826 141.564 11.2 141.895 11.2C142.237 11.2 142.575 11.182 142.908 11.1517C143.118 9.37044 143.733 7.71218 144.659 6.27181C143.699 4.77808 143.078 3.04906 142.891 1.19258C142.563 1.16394 142.231 1.14653 141.895 1.14653C141.57 1.14653 141.248 1.16338 140.93 1.19034V1.19033ZM148.482 15.5042C149.664 16.3319 150.683 17.377 151.485 18.5798C152.361 17.1906 152.943 15.5991 153.149 13.8903C151.451 14.0762 149.865 14.6394 148.482 15.5042V15.5042ZM144.896 5.91589C145.72 4.7327 146.759 3.71236 147.954 2.90822C146.572 2.03051 144.989 1.44426 143.289 1.23536C143.473 2.93798 144.035 4.52885 144.896 5.91589ZM143.309 11.1072C144.931 10.9 146.445 10.3441 147.773 9.51353C146.653 8.72904 145.678 7.75138 144.896 6.62772C144.068 7.96028 143.515 9.47983 143.309 11.1072V11.1072ZM143.217 12.5168C143.217 12.8515 143.235 13.1817 143.264 13.5085C145.039 13.7202 146.692 14.3374 148.128 15.2656C149.616 14.3031 151.339 13.6798 153.19 13.4911C153.216 13.1693 153.234 12.8453 153.234 12.5168C153.234 12.1827 153.216 11.8531 153.188 11.5262C151.339 11.3376 149.616 10.7142 148.128 9.75175C146.692 10.68 145.04 11.2971 143.265 11.5088C143.235 11.8413 143.217 12.1771 143.217 12.5168V12.5168ZM145.124 6.27182C145.924 7.45781 146.945 8.48208 148.127 9.28454C149.369 8.44109 150.43 7.35113 151.247 6.08763C150.456 4.93476 149.46 3.9352 148.31 3.14286C147.052 3.9616 145.965 5.02573 145.124 6.27182V6.27182ZM148.482 9.51331C149.864 10.3775 151.45 10.9413 153.146 11.1272C152.939 9.42065 152.356 7.83202 151.48 6.44612C150.679 7.64504 149.662 8.68726 148.482 9.51331H148.482ZM141.895 11.5931C141.577 11.5931 141.263 11.5768 140.952 11.551C140.978 11.8699 140.995 12.1911 140.995 12.5168C140.995 12.8369 140.978 13.1525 140.953 13.4659C141.264 13.4411 141.578 13.4243 141.895 13.4243C142.223 13.4243 142.547 13.4417 142.867 13.4687C142.841 13.1542 142.825 12.8375 142.825 12.5168C142.825 12.1906 142.842 11.8682 142.869 11.5487C142.547 11.5762 142.223 11.5931 141.895 11.5931V11.5931ZM140.603 12.5168C140.603 12.1782 140.586 11.8435 140.556 11.5128C138.775 11.305 137.118 10.6895 135.678 9.7613C134.185 10.7238 132.457 11.3454 130.602 11.5296C130.574 11.8553 130.556 12.1838 130.556 12.5168C130.556 12.8442 130.573 13.1671 130.6 13.4878C132.456 13.6719 134.184 14.2936 135.678 15.2561C137.118 14.3278 138.776 13.7118 140.557 13.5046C140.586 13.1789 140.603 12.8498 140.603 12.5168H140.603ZM140.514 13.9062C138.886 14.1089 137.366 14.6637 136.033 15.4937C137.162 16.2816 138.144 17.266 138.93 18.3975C139.758 17.061 140.311 15.5381 140.514 13.9062ZM138.924 5.9159C139.787 4.52774 140.348 2.93518 140.532 1.23143C138.826 1.4364 137.238 2.02041 135.852 2.89812C137.053 3.70394 138.097 4.72766 138.924 5.9159ZM138.93 19.1101C138.102 20.3017 137.056 21.3283 135.851 22.1352C137.238 23.0135 138.827 23.5975 140.534 23.8024C140.352 22.0953 139.792 20.5011 138.93 19.1101L138.93 19.1101ZM144.891 19.1101C144.029 20.5 143.469 22.0931 143.288 23.7985C144.988 23.5896 146.572 23.0039 147.954 22.1256C146.756 21.3198 145.715 20.2967 144.891 19.1101V19.1101ZM142.889 23.8408C143.074 21.9815 143.694 20.2497 144.654 18.7537C143.728 17.3111 143.114 15.65 142.906 13.8654C142.573 13.8351 142.236 13.8171 141.895 13.8171C141.565 13.8171 141.238 13.8345 140.914 13.8632C140.707 15.6483 140.092 17.31 139.167 18.7537C140.127 20.2502 140.747 21.9832 140.931 23.843C141.249 23.87 141.57 23.8868 141.895 23.8868C142.23 23.8868 142.561 23.8694 142.889 23.8408L142.889 23.8408ZM138.702 18.7539C137.897 17.5595 136.869 16.5291 135.678 15.7227C134.427 16.5695 133.358 17.6662 132.538 18.9381C133.332 20.0994 134.336 21.1051 135.494 21.9009C136.763 21.0793 137.857 20.0084 138.702 18.7539ZM135.322 9.52372C134.136 8.69599 133.114 7.64982 132.31 6.44584C131.434 7.83288 130.851 9.42319 130.643 11.1303C132.345 10.9489 133.935 10.3874 135.322 9.52372V9.52372ZM140.512 11.111C140.307 9.4825 139.752 7.96181 138.924 6.62757C138.139 7.75573 137.16 8.73733 136.033 9.52349C137.366 10.3535 138.885 10.9083 140.512 11.111V11.111ZM135.494 3.13248C134.338 3.92651 133.337 4.93 132.544 6.08793C133.363 7.35591 134.429 8.44981 135.678 9.29494C136.866 8.4908 137.893 7.46261 138.696 6.27155C137.852 5.02041 136.76 3.9529 135.494 3.13248V3.13248ZM135.322 15.4937C133.935 14.6295 132.344 14.068 130.641 13.8866C130.846 15.5971 131.429 17.1896 132.304 18.5795C133.11 17.3721 134.134 16.3237 135.322 15.4937H135.322ZM141.895 0.381841C135.222 0.381841 129.794 5.82553 129.794 12.517C129.794 19.2084 135.222 24.6521 141.895 24.6521C148.568 24.6521 153.996 19.2084 153.996 12.517C153.996 5.82553 148.568 0.381841 141.895 0.381841V0.381841ZM141.895 25.0334C135.012 25.0334 129.413 19.4184 129.413 12.517C129.413 5.61495 135.012 0 141.895 0C148.778 0 154.377 5.61495 154.377 12.517C154.377 19.4184 148.778 25.0334 141.895 25.0334" fill="#EFE3C7"/>
</svg>
