<svg width="20" height="20" viewBox="0 0 20 20" fill="none" xmlns="http://www.w3.org/2000/svg">
<path d="M6.04338 0.93275H6.04265C5.07259 0.978481 4.42942 1.13161 3.87527 1.34615L3.87108 1.34777L3.87108 1.34775C3.29726 1.56401 2.7775 1.90277 2.348 2.34045L2.34136 2.34722L2.34129 2.34716C1.90328 2.7769 1.56421 3.29698 1.34772 3.87115L1.34617 3.87527L1.34615 3.87527C1.13069 4.43182 0.976447 5.07777 0.93224 6.05534C0.886372 7.06961 0.875 7.38807 0.875 10C0.875 12.6113 0.885507 12.9295 0.932218 13.9459L6.04338 0.93275ZM6.04338 0.93275L6.05487 0.932221M6.04338 0.93275L6.05487 0.932221M6.05487 0.932221C7.06958 0.885508 7.38769 0.875 10 0.875C12.6119 0.875 12.9304 0.886372 13.9447 0.93224C14.9222 0.976447 15.5682 1.13069 16.1247 1.34615L16.1247 1.34617M6.05487 0.932221L16.1247 1.34617M16.1247 1.34617L16.1285 1.34759M16.1247 1.34617L16.1285 1.34759M16.1285 1.34759C16.7023 1.56441 17.2227 1.90331 17.653 2.34148L17.653 2.34154M16.1285 1.34759L17.653 2.34154M17.653 2.34154L17.6597 2.34817M17.653 2.34154L17.6597 2.34817M17.6597 2.34817C18.0975 2.77734 18.4353 3.29649 18.6512 3.87073L18.6512 3.87074M17.6597 2.34817L18.6512 3.87074M18.6512 3.87074L18.6532 3.87584M18.6512 3.87074L18.6532 3.87584M18.6532 3.87584C18.8692 4.4318 19.0227 5.07759 19.0678 6.05405L18.6532 3.87584ZM18.6532 16.1233L18.6532 16.1233C18.8693 15.5671 19.0236 14.9213 19.0678 13.9456C19.0678 13.9455 19.0678 13.9455 19.0678 13.9455L19.5673 13.9681L18.6532 16.1233ZM18.6532 16.1233L18.6512 16.1284M18.6532 16.1233L18.6512 16.1284M18.6512 16.1284C18.4353 16.7027 18.0968 17.2231 17.6592 17.6532L17.6592 17.6531M18.6512 16.1284L17.6592 17.6531M17.6592 17.6531L17.653 17.6594M17.6592 17.6531L17.653 17.6594M17.653 17.6594C17.2229 18.0973 16.7027 18.4353 16.1291 18.6513L16.129 18.6513M17.653 17.6594L16.129 18.6513M16.129 18.6513L16.1242 18.6532M16.129 18.6513L16.1242 18.6532M16.1242 18.6532C15.5682 18.8692 14.9224 19.0227 13.946 19.0678L16.1242 18.6532ZM3.87673 18.6532L3.87672 18.6532C4.43295 18.8693 5.07866 19.0236 6.05444 19.0678C6.05446 19.0678 6.05448 19.0678 6.0545 19.0678L6.03188 19.5673C7.05825 19.6136 7.3855 19.625 10 19.625L3.87673 18.6532ZM3.87673 18.6532L3.87161 18.6512M3.87673 18.6532L3.87161 18.6512M3.87161 18.6512C3.2973 18.4353 2.77695 18.0968 2.3468 17.6592L2.34685 17.6592M3.87161 18.6512L2.34685 17.6592M2.34685 17.6592L2.34051 17.6529M2.34685 17.6592L2.34051 17.6529M2.34051 17.6529C1.90273 17.2232 1.56396 16.7032 1.34781 16.1291L1.34783 16.1291M2.34051 17.6529L1.34783 16.1291M1.34783 16.1291L1.34615 16.1247M1.34783 16.1291L1.34615 16.1247M1.34615 16.1247C1.13078 15.5684 0.977294 14.9224 0.932223 13.946L1.34615 16.1247ZM16.9823 5.37828C17.1448 5.225 17.2749 5.04066 17.3648 4.83619C17.4548 4.63173 17.5029 4.41129 17.5061 4.18792C17.5094 3.96456 17.4678 3.74281 17.3838 3.53581C17.2998 3.32881 17.1752 3.14076 17.0172 2.9828C16.8592 2.82484 16.6712 2.70018 16.4642 2.6162C16.2572 2.53222 16.0354 2.49063 15.8121 2.49389C15.5887 2.49714 15.3683 2.54518 15.1638 2.63516C14.9593 2.72514 14.775 2.85523 14.6217 3.01772C14.3236 3.33375 14.1604 3.75352 14.1667 4.18792C14.1731 4.62232 14.3484 5.03716 14.6556 5.34436C14.9628 5.65157 15.3777 5.82695 15.8121 5.83328C16.2465 5.83961 16.6662 5.6764 16.9823 5.37828ZM16.4495 4.4334C16.4135 4.51542 16.3613 4.58937 16.2961 4.65086C16.1693 4.77045 16.0009 4.83593 15.8267 4.83339C15.6524 4.83085 15.486 4.76049 15.3627 4.63726C15.2395 4.51402 15.1692 4.34761 15.1666 4.17335C15.1641 3.99908 15.2295 3.83069 15.3491 3.70392C15.4106 3.63873 15.4846 3.58655 15.5666 3.55045C15.6486 3.51436 15.7371 3.49509 15.8267 3.49378C15.9163 3.49247 16.0052 3.50916 16.0882 3.54285C16.1713 3.57654 16.2467 3.62654 16.3101 3.68991C16.3735 3.75327 16.4235 3.82871 16.4572 3.91175C16.4908 3.99479 16.5075 4.08375 16.5062 4.17335C16.5049 4.26295 16.4856 4.35138 16.4495 4.4334ZM8.96278 12.5055L8.96214 12.5053C8.59189 12.3517 8.26029 12.118 7.9912 11.821C7.72212 11.5239 7.52224 11.1709 7.40597 10.7873C7.2897 10.4037 7.25992 9.99911 7.31878 9.60264C7.37764 9.20617 7.52367 8.82768 7.74637 8.49442C7.96906 8.16116 8.26287 7.88142 8.60665 7.67534C8.95043 7.46926 9.33563 7.34197 9.73451 7.30262C10.1334 7.26328 10.536 7.31287 10.9135 7.44781C11.2909 7.58276 11.6337 7.79971 11.9172 8.08304L11.9177 8.08353C12.3624 8.52674 12.6394 9.1106 12.7015 9.73539C12.7635 10.3602 12.6068 10.9871 12.2579 11.5092C11.9091 12.0312 11.3898 12.4159 10.7888 12.5977C10.1879 12.7794 9.54242 12.7468 8.96278 12.5055ZM7.91542 4.96738C7.25453 5.24113 6.65402 5.64237 6.1482 6.1482C5.12664 7.16976 4.55273 8.55529 4.55273 10C4.55273 11.4447 5.12664 12.8302 6.1482 13.8518C7.16976 14.8734 8.55529 15.4473 10 15.4473C11.4447 15.4473 12.8302 14.8734 13.8518 13.8518C14.3576 13.346 14.7589 12.7455 15.0326 12.0846C15.3064 11.4237 15.4473 10.7153 15.4473 10C15.4473 9.28465 15.3064 8.57631 15.0326 7.91542C14.7589 7.25453 14.3576 6.65402 13.8518 6.1482C13.346 5.64237 12.7455 5.24113 12.0846 4.96738C11.4237 4.69362 10.7153 4.55273 10 4.55273C9.28465 4.55273 8.57631 4.69363 7.91542 4.96738Z" stroke="#3A3E46"/>
</svg>
