<svg width="48" height="48" viewBox="0 0 48 48" fill="none" xmlns="http://www.w3.org/2000/svg">
<path d="M37.1777 29.7587L37.1777 29.7586C37.1289 29.6182 37.0444 29.4915 36.9313 29.3908C36.8184 29.2904 36.6809 29.2193 36.5313 29.1849C36.531 29.1849 36.5308 29.1848 36.5305 29.1847L28.1328 27.2943L37.1777 29.7587ZM37.1777 29.7587L37.1797 29.7642M37.1777 29.7587L37.1797 29.7642M37.1797 29.7642C37.2876 30.0635 37.369 30.3715 37.4229 30.6846M37.1797 29.7642L26.9539 27.1652C26.7579 27.3446 26.7439 27.3584 25.8339 29.07C22.8143 27.6982 20.3948 25.303 19.0158 22.3203C19.1158 22.2706 19.2102 22.2237 19.2994 22.1794C20.7959 21.4363 20.818 21.4253 20.9898 21.2299C21.1532 21.065 21.2721 20.8624 21.3357 20.6406C21.3993 20.4188 21.4055 20.1848 21.3538 19.96L19.4358 11.7748C19.3821 11.5467 19.2704 11.3357 19.1112 11.1619C18.952 10.988 18.7505 10.8569 18.5258 10.781C18.1988 10.6659 17.8612 10.5827 17.5177 10.5326C17.1639 10.4517 16.8028 10.4054 16.4397 10.3945C14.7317 10.3945 13.0936 11.0635 11.8859 12.2542C10.6781 13.445 9.99963 15.06 9.99963 16.7439C10.007 22.3793 12.2809 27.7817 16.3227 31.7666C20.3644 35.7514 25.8441 37.9932 31.5599 38.0006C32.4057 38.0006 33.2431 37.8363 34.0244 37.5172C34.8058 37.1981 35.5157 36.7305 36.1138 36.1409C36.7118 35.5513 37.1862 34.8513 37.5098 34.081C37.8334 33.3106 38 32.485 38 31.6512C38.0005 31.2998 37.9724 30.949 37.916 30.6021L37.4232 30.6867C37.4231 30.686 37.423 30.6853 37.4229 30.6846M37.4229 30.6846C37.4746 31.0041 37.5004 31.3271 37.5 31.6505V31.6512C37.5 32.4183 37.3468 33.1781 37.0488 33.8873C36.7509 34.5965 36.314 35.2413 35.7627 35.7848C35.2115 36.3283 34.5566 36.7598 33.8354 37.0543C33.1144 37.3488 32.3414 37.5005 31.5606 37.5006C25.9748 37.4934 20.6213 35.3025 16.6737 31.4105C12.7264 27.5188 10.507 22.2441 10.4996 16.7436C10.4997 15.1947 11.1238 13.7077 12.2369 12.6103C13.3486 11.5142 14.8572 10.8965 16.4322 10.8945C16.7603 10.9049 17.0866 10.9469 17.4063 11.02L17.4258 11.0244L17.4456 11.0273C17.7571 11.0728 18.0632 11.1482 18.3597 11.2526L18.3597 11.2527L18.3657 11.2547C18.5111 11.3038 18.6406 11.3883 18.7424 11.4995C18.8441 11.6106 18.915 11.7448 18.949 11.8892C18.949 11.8892 18.949 11.8893 18.9491 11.8894L20.8665 20.0721C20.8666 20.0724 20.8667 20.0727 20.8667 20.073C20.8992 20.215 20.8952 20.3627 20.855 20.5028C20.8148 20.6433 20.7392 20.7724 20.6347 20.8779L20.6241 20.8885L20.6143 20.8998C20.5712 20.9488 20.5618 20.9576 20.5459 20.9701C20.5236 20.9876 20.4775 21.0191 20.3608 21.0831C20.1499 21.1988 19.7826 21.3812 19.071 21.7346C18.9837 21.778 18.8913 21.8239 18.7933 21.8726L18.3579 22.0889L18.5619 22.5302C19.9917 25.6227 22.4995 28.1044 25.627 29.5252L26.0548 29.7196L26.2753 29.3047C26.7334 28.4432 26.9576 28.0249 27.092 27.7975C27.1582 27.6856 27.1924 27.6377 27.2129 27.6123C27.2299 27.5912 27.2423 27.579 27.2915 27.534L27.2916 27.5341L27.3008 27.5253C27.4079 27.4221 27.5402 27.3464 27.6858 27.3058C27.8311 27.2653 27.9846 27.2613 28.1321 27.2941L37.4229 30.6846Z" stroke="#3A3E46"/>
<path d="M37.2002 21.8312C37.2002 18.6933 35.9359 15.684 33.6855 13.4653C31.435 11.2465 28.3827 10 25.2001 10" stroke="#3A3E46" stroke-linecap="round"/>
<path d="M31.1996 23.0147C31.1996 21.132 30.441 19.3264 29.0908 17.9952C27.7405 16.6639 25.9091 15.916 23.9995 15.916" stroke="#3A3E46" stroke-linecap="round"/>
</svg>
