<svg width="28" height="29" viewBox="0 0 28 29" fill="none" xmlns="http://www.w3.org/2000/svg">
<path d="M27.1777 20.7587L27.1777 20.7586C27.1289 20.6182 27.0444 20.4915 26.9313 20.3908C26.8184 20.2904 26.6809 20.2193 26.5313 20.1849C26.531 20.1849 26.5308 20.1848 26.5305 20.1847L18.1328 18.2943L27.1777 20.7587ZM27.1777 20.7587L27.1797 20.7642M27.1777 20.7587L27.1797 20.7642M27.1797 20.7642C27.2876 21.0635 27.369 21.3715 27.4229 21.6846M27.1797 20.7642L16.9539 18.1652C16.7579 18.3446 16.7439 18.3584 15.8339 20.07C12.8143 18.6982 10.3948 16.303 9.01576 13.3203C9.11577 13.2706 9.21021 13.2237 9.2994 13.1794C10.7959 12.4363 10.818 12.4253 10.9898 12.2299C11.1532 12.065 11.2721 11.8624 11.3357 11.6406C11.3993 11.4188 11.4055 11.1848 11.3538 10.96L9.43576 2.77483C9.38207 2.54666 9.27036 2.33572 9.11116 2.16186C8.95196 1.98799 8.7505 1.85694 8.52575 1.78102C8.1988 1.66588 7.86118 1.58267 7.51774 1.53256C7.16389 1.45167 6.80279 1.40543 6.43972 1.39453C4.7317 1.39453 3.09364 2.06348 1.88589 3.25422C0.678141 4.44496 -0.000366211 6.05995 -0.000366211 7.74392C0.00704258 13.3793 2.28095 18.7817 6.32268 22.7666C10.3644 26.7514 15.8441 28.9932 21.5599 29.0006C22.4057 29.0006 23.2431 28.8363 24.0244 28.5172C24.8058 28.1981 25.5157 27.7305 26.1138 27.1409C26.7118 26.5513 27.1862 25.8513 27.5098 25.081C27.8334 24.3106 28 23.485 28 22.6512C28.0005 22.2998 27.9724 21.949 27.916 21.6021L27.4232 21.6867C27.4231 21.686 27.423 21.6853 27.4229 21.6846M27.4229 21.6846C27.4746 22.0041 27.5004 22.3271 27.5 22.6505V22.6512C27.5 23.4183 27.3468 24.1781 27.0488 24.8873C26.7509 25.5965 26.314 26.2413 25.7627 26.7848C25.2115 27.3283 24.5566 27.7598 23.8354 28.0543C23.1144 28.3488 22.3414 28.5005 21.5606 28.5006C15.9748 28.4934 10.6213 26.3025 6.67372 22.4105C2.72644 18.5188 0.506952 13.2441 0.499634 7.74358C0.499724 6.19466 1.12379 4.70773 2.23693 3.61028C3.34861 2.51425 4.85723 1.8965 6.43219 1.89454C6.7603 1.90487 7.08657 1.94689 7.40631 2.01999L7.42579 2.02444L7.44556 2.02732C7.75707 2.07277 8.06324 2.14824 8.35968 2.25263L8.35967 2.25267L8.36574 2.25472C8.51107 2.30381 8.64056 2.3883 8.7424 2.49952C8.84415 2.61064 8.915 2.7448 8.94901 2.88915C8.94902 2.88922 8.94904 2.8893 8.94906 2.88937L10.8665 11.0721C10.8666 11.0724 10.8667 11.0727 10.8667 11.073C10.8992 11.215 10.8952 11.3627 10.855 11.5028C10.8148 11.6433 10.7392 11.7724 10.6347 11.8779L10.6241 11.8885L10.6143 11.8998C10.5712 11.9488 10.5618 11.9576 10.5459 11.9701C10.5236 11.9876 10.4775 12.0191 10.3608 12.0831C10.1499 12.1988 9.78262 12.3812 9.07096 12.7346C8.9837 12.778 8.89125 12.8239 8.79328 12.8726L8.35789 13.0889L8.56192 13.5302C9.99172 16.6227 12.4995 19.1044 15.627 20.5252L16.0548 20.7196L16.2753 20.3047C16.7334 19.4432 16.9576 19.0249 17.092 18.7975C17.1582 18.6856 17.1924 18.6377 17.2129 18.6123C17.2299 18.5912 17.2423 18.579 17.2915 18.534L17.2916 18.5341L17.3008 18.5253C17.4079 18.4221 17.5402 18.3464 17.6858 18.3058C17.8311 18.2653 17.9846 18.2613 18.1321 18.2941L27.4229 21.6846Z" stroke="#EFE3C7"/>
<path d="M27.2002 12.8312C27.2002 9.69333 25.9359 6.68404 23.6854 4.46526C21.4349 2.24649 18.3827 1 15.2 1" stroke="#EFE3C7" stroke-linecap="round"/>
<path d="M21.1995 14.0147C21.1995 12.132 20.441 10.3264 19.0907 8.99517C17.7404 7.66391 15.909 6.91602 13.9995 6.91602" stroke="#EFE3C7" stroke-linecap="round"/>
</svg>
