<svg width="18" height="19" viewBox="0 0 18 19" fill="none" xmlns="http://www.w3.org/2000/svg">
<path d="M17.4208 13.6404L17.4208 13.6404C17.3919 13.556 17.342 13.4803 17.2758 13.4206C17.2097 13.3609 17.1295 13.319 17.0428 13.2988C17.0427 13.2988 17.0425 13.2987 17.0424 13.2987L11.6442 12.0661C11.6441 12.0661 11.6441 12.0661 11.644 12.0661C11.5585 12.0467 11.4694 12.0491 11.385 12.0729C11.3006 12.0968 11.2234 12.1414 11.1607 12.2028L11.1538 12.2094L11.1538 12.2094C11.1221 12.2387 11.1167 12.2444 11.1083 12.2549C11.0973 12.2687 11.0767 12.2977 11.0346 12.3699C10.9488 12.517 10.8053 12.7886 10.5106 13.3508L10.3454 13.6659L10.0223 13.517C7.99971 12.585 6.37903 10.9577 5.45532 8.93129L5.30598 8.60368L5.62751 8.44165C5.69026 8.41003 5.74948 8.3802 5.80537 8.35205C6.26374 8.12115 6.49866 8.00281 6.63323 7.92795C6.70737 7.8867 6.73398 7.86783 6.74492 7.85912L6.74506 7.859C6.75118 7.85413 6.7548 7.85125 6.78207 7.81979L6.78939 7.81134L6.79721 7.80334C6.85855 7.74056 6.90319 7.66342 6.92707 7.57895C6.95087 7.49471 6.95326 7.40586 6.93402 7.32047C6.93397 7.32024 6.93392 7.32002 6.93386 7.31979L5.70128 1.98462L17.4208 13.6404ZM17.4208 13.6404L17.4222 13.6444M17.4208 13.6404L17.4222 13.6444M17.4222 13.6444C17.4907 13.8371 17.5424 14.0354 17.5766 14.237M17.4222 13.6444L17.946 14.176M13.86 19C14.4037 19 14.942 18.8929 15.4443 18.6849C15.9466 18.4768 16.403 18.1719 16.7874 17.7874C17.1719 17.403 17.4768 16.9466 17.6849 16.4443C17.8929 15.942 18 15.4037 18 14.86C18.0003 14.6309 17.9822 14.4022 17.946 14.176M13.86 19L13.8605 18.6256M13.86 19V18.6256C13.8602 18.6256 13.8603 18.6256 13.8605 18.6256M13.86 19C10.1856 18.9952 6.66298 17.5335 4.06476 14.9352C1.46654 12.337 0.00476273 8.81444 0 5.14M13.8605 18.6256C14.3548 18.6255 14.8443 18.5281 15.301 18.339C15.7579 18.1497 16.173 17.8723 16.5227 17.5227C16.8723 17.173 17.1497 16.7579 17.339 16.301C17.5282 15.8442 17.6256 15.3545 17.6256 14.86V14.8595C17.6258 14.651 17.6095 14.4428 17.5766 14.237M13.8605 18.6256C10.2852 18.621 6.85763 17.1986 4.3295 14.6705C1.80144 12.1424 0.379104 8.71499 0.374402 5.13977M17.5766 14.237C17.5767 14.2375 17.5768 14.238 17.5768 14.2385L17.946 14.176M17.5766 14.237C17.5765 14.2364 17.5764 14.2358 17.5763 14.2352L17.946 14.176M0.374402 5.13977C0.374463 4.14116 0.771188 3.18345 1.47732 2.47732C2.18216 1.77248 3.13764 1.37592 4.13427 1.37441C4.34112 1.38108 4.54682 1.40798 4.74843 1.45473L4.7632 1.45815L4.77819 1.46037C4.97474 1.48945 5.16796 1.53776 5.35507 1.60459L5.35506 1.60462L5.35965 1.60619C5.44402 1.6351 5.51965 1.685 5.57942 1.75121C5.63911 1.81732 5.68102 1.89752 5.7012 1.98428L0.374402 5.13977ZM0.374402 5.13977C0.374402 5.13985 0.374402 5.13992 0.374402 5.14H0M0.374402 5.13977C0.374402 5.13969 0.374402 5.1396 0.374402 5.13951L0 5.14M0.374402 5.13977L1.21258 2.21258C0.436177 2.98898 0 4.042 0 5.14" stroke="#3A3E46" stroke-width="0.748805"/>
<path d="M17 8C17 6.14348 16.2625 4.36301 14.9497 3.05025C13.637 1.7375 11.8565 1 10 1" stroke="#3A3E46" stroke-width="0.748805" stroke-linecap="round"/>
<path d="M13 10C13 8.67392 12.4732 7.40215 11.5355 6.46447C10.5979 5.52678 9.32608 5 8 5" stroke="#3A3E46" stroke-width="0.748805" stroke-linecap="round"/>
</svg>
