<svg width="26" height="29" viewBox="0 0 26 29" fill="none" xmlns="http://www.w3.org/2000/svg">
<path d="M13 13C11.4087 13 9.88258 12.3679 8.75736 11.2426C7.63214 10.1174 7 8.5913 7 7C7 5.4087 7.63214 3.88258 8.75736 2.75736C9.88258 1.63214 11.4087 1 13 1C14.5913 1 16.1174 1.63214 17.2426 2.75736C18.3679 3.88258 19 5.4087 19 7C19 8.5913 18.3679 10.1174 17.2426 11.2426C16.1174 12.3679 14.5913 13 13 13Z" stroke="#3A3E46" stroke-linecap="round"/>
<path d="M1 28V26.5C1 24.1131 1.94821 21.8239 3.63604 20.136C5.32387 18.4482 7.61305 17.5 10 17.5H16C18.3869 17.5 20.6761 18.4482 22.364 20.136C24.0518 21.8239 25 24.1131 25 26.5V28" stroke="#3A3E46" stroke-linecap="round"/>
</svg>
