<svg width="25" height="14" viewBox="0 0 25 14" fill="none" xmlns="http://www.w3.org/2000/svg">
<path d="M23.3574 0.735619L23.351 0.755402L23.3463 0.775646C23.2833 1.04659 23.0622 1.51147 22.7195 2.10116C22.3868 2.67359 21.9699 3.3132 21.5589 3.91516C21.1487 4.51604 20.748 5.07397 20.4496 5.48189C20.3921 5.56056 20.3384 5.63359 20.2892 5.70022L20.2655 5.67805L19.9388 6.17016C19.9342 6.17697 19.9296 6.1839 19.9249 6.19095C19.8068 6.36853 19.6373 6.62325 19.6114 6.9223C19.5807 7.27634 19.747 7.57109 19.9647 7.8352C20.1293 8.047 20.4395 8.3311 20.7377 8.60419C20.7533 8.61845 20.7688 8.63268 20.7843 8.64687C21.1231 8.9574 21.4817 9.28726 21.7651 9.60002L21.765 9.60011L21.7733 9.60882C22.3252 10.1892 22.7997 10.7148 23.1626 11.1743C23.5299 11.6394 23.7514 11.9982 23.8402 12.2526C23.8763 12.371 23.8778 12.4442 23.873 12.4821C23.869 12.5141 23.8608 12.5229 23.8569 12.5272L23.8567 12.5273C23.8389 12.5467 23.7353 12.6239 23.4207 12.6239H20.8363C20.6592 12.6239 20.5328 12.5923 20.4145 12.5344C20.2867 12.4718 20.1457 12.3673 19.9529 12.1866C19.7955 12.0389 19.6234 11.86 19.4072 11.6351C19.3552 11.581 19.3007 11.5243 19.2432 11.4647C18.9516 11.1625 18.5983 10.8025 18.1514 10.3845L18.1515 10.3844L18.1445 10.3782C16.598 8.98496 15.8178 8.68706 15.2362 8.68706C14.973 8.68706 14.5876 8.71034 14.3239 9.01661C14.086 9.29291 14.0594 9.6802 14.0594 10.0163V12.1843C14.0594 12.3126 14.0471 12.3728 14.0354 12.403C14.0301 12.4169 14.0245 12.4309 13.9869 12.4545C13.8646 12.5313 13.5371 12.625 12.7143 12.625C10.1587 12.625 7.29035 11.1675 5.23146 8.40318L5.23149 8.40316L5.22799 8.39857C3.64913 6.32902 2.64917 4.51871 2.04574 3.15587C1.74389 2.47414 1.54225 1.90663 1.41698 1.47674C1.28722 1.03149 1.25 0.769518 1.25 0.683709C1.25 0.626315 1.25624 0.593198 1.26159 0.576181C1.26344 0.570307 1.26491 0.567223 1.2655 0.56609C1.26661 0.565101 1.27017 0.562166 1.27769 0.557908C1.28734 0.552441 1.30463 0.544174 1.33267 0.535583C1.39036 0.517907 1.48624 0.501103 1.6366 0.501103H4.22093C4.48214 0.501103 4.57497 0.553448 4.62746 0.59867C4.70096 0.661986 4.78915 0.792923 4.90711 1.11338C5.55329 2.87296 6.42076 4.52275 7.24445 5.73996C7.65547 6.34734 8.06465 6.86051 8.43973 7.22812C8.62688 7.41154 8.81652 7.56962 9.00363 7.68482C9.18268 7.79505 9.40588 7.89508 9.64897 7.89508C9.76079 7.89508 9.90859 7.88423 10.0576 7.82132C10.2211 7.75234 10.3516 7.63567 10.443 7.48109C10.5987 7.21801 10.6288 6.85923 10.6288 6.47318V2.91348V2.89894L10.628 2.88443C10.5736 1.9501 10.2727 1.41057 9.97271 1.02872C9.90729 0.945467 9.84301 0.871057 9.79021 0.809927L9.78012 0.798247C9.72205 0.730976 9.68237 0.684262 9.651 0.641831C9.62087 0.601075 9.60934 0.578478 9.60479 0.56738C9.60404 0.565545 9.60348 0.564057 9.60307 0.562831C9.60858 0.550856 9.63554 0.5 9.75979 0.5H13.8226C13.921 0.5 13.9725 0.51267 13.995 0.521045C14.0016 0.523494 14.0053 0.525421 14.007 0.526372C14.0099 0.530405 14.023 0.550876 14.0356 0.604736C14.0502 0.666752 14.0606 0.757852 14.0606 0.888821V5.67809C14.0606 6.3144 14.3915 6.86952 14.9626 6.86952C15.5172 6.86952 15.9303 6.53383 16.509 5.98932L16.5185 5.98043L16.5274 5.97108C17.5007 4.95533 18.3189 3.67852 18.8888 2.671C19.1754 2.16439 19.4026 1.71978 19.5584 1.40117C19.6364 1.24176 19.6966 1.11363 19.7376 1.02473C19.7581 0.980271 19.7739 0.945602 19.7846 0.921716L19.7969 0.894091L19.7993 0.888809C19.8577 0.763439 19.9253 0.675067 20.0096 0.615452C20.0904 0.558268 20.225 0.5 20.4673 0.5H23.0528C23.2114 0.5 23.3078 0.51956 23.3609 0.538291C23.3745 0.543072 23.3842 0.547405 23.3909 0.550845C23.393 0.57462 23.3913 0.630259 23.3574 0.735619ZM23.4039 0.55883C23.4038 0.558842 23.4034 0.558521 23.4027 0.557827L23.4039 0.55883ZM23.3888 0.537617C23.3885 0.536849 23.3884 0.53644 23.3884 0.536428L23.3888 0.537617Z" stroke="#3A3E46"/>
</svg>
